<svg width="26" height="15" viewBox="0 0 26 15" fill="none" xmlns="http://www.w3.org/2000/svg">
<path d="M0.285645 13.9838V1.12344H3.77817V13.9838H0.285645ZM8.68369 13.9838V6.39538C8.68369 5.64985 8.44375 5.07295 7.96386 4.66469C7.50175 4.23867 6.9241 4.02567 6.23093 4.02567C5.76882 4.02567 5.35114 4.1233 4.97789 4.31855C4.60464 4.49606 4.31138 4.76232 4.09809 5.11733C3.88481 5.47234 3.77817 5.89836 3.77817 6.39538L2.41848 5.72973C2.41848 4.73569 2.63177 3.87479 3.05833 3.14701C3.50268 2.41923 4.09809 1.86009 4.84459 1.46957C5.59108 1.06131 6.43533 0.857178 7.37733 0.857178C8.26601 0.857178 9.07471 1.06131 9.80343 1.46957C10.5322 1.86009 11.1098 2.41923 11.5364 3.14701C11.9629 3.85704 12.1762 4.71794 12.1762 5.72973V13.9838H8.68369ZM17.0817 13.9838V6.39538C17.0817 5.64985 16.8418 5.07295 16.3619 4.66469C15.8998 4.23867 15.3222 4.02567 14.629 4.02567C14.1846 4.02567 13.767 4.1233 13.3759 4.31855C13.0027 4.49606 12.7094 4.76232 12.4961 5.11733C12.2829 5.47234 12.1762 5.89836 12.1762 6.39538L10.1767 5.91611C10.2478 4.88657 10.5233 3.99904 11.0032 3.25351C11.483 2.49024 12.114 1.90447 12.896 1.4962C13.6781 1.07019 14.549 0.857178 15.5088 0.857178C16.4686 0.857178 17.3306 1.06131 18.0948 1.46957C18.8591 1.86009 19.4634 2.42811 19.9078 3.17364C20.3521 3.91916 20.5743 4.80669 20.5743 5.83623V13.9838H17.0817Z" fill="#03040D"/>
<path d="M23.9546 14.25C23.5602 14.25 23.237 14.1209 22.9851 13.8627C22.7331 13.6046 22.6071 13.2872 22.6071 12.9107C22.6071 12.5342 22.7331 12.2169 22.9851 11.9587C23.237 11.7005 23.5602 11.5714 23.9546 11.5714C24.3381 11.5714 24.6558 11.7005 24.9077 11.9587C25.1597 12.2169 25.2857 12.5342 25.2857 12.9107C25.2857 13.2872 25.1597 13.6046 24.9077 13.8627C24.6558 14.1209 24.3381 14.25 23.9546 14.25Z" fill="#03040D"/>
</svg>
