<svg width="295" height="70" viewBox="0 0 295 70" fill="none" xmlns="http://www.w3.org/2000/svg">
<rect width="294.52" height="69.5581" fill="#1B1C1D"/>
<path d="M18.9836 34.2206C18.9836 37.0196 18.9836 39.1824 18.9836 40.3275C18.9836 41.4725 20.1287 42.6175 21.2737 42.6175C22.4187 42.6175 32.3423 42.6175 33.4874 42.6175C34.6324 42.6175 35.7774 41.4725 35.7774 40.3275C35.7774 39.1824 35.7774 34.2206 35.7774 34.2206M18.9836 34.2206H23.1821C23.1821 34.2206 24.3271 36.8924 27.3805 36.8924C30.434 36.8924 31.579 34.2206 31.579 34.2206H35.7774M18.9836 34.2206L22.0371 25.8237H32.724L35.7774 34.2206M18.9836 34.2206V36.8924M35.7774 34.2206V36.8924" stroke="#D1D3D6" stroke-width="1.52671" stroke-linecap="round" stroke-linejoin="round"/>
<path d="M83.5787 17.5894V29.167H82.0361L76.2075 20.2373V29.167H74.6729V17.5894H76.2075L82.0599 26.543V17.5894H83.5787ZM89.6457 29.326C89.0467 29.326 88.5034 29.2253 88.0157 29.0239C87.5333 28.8171 87.1171 28.5282 86.7673 28.1571C86.4227 27.7861 86.1576 27.3461 85.9721 26.8372C85.7866 26.3283 85.6938 25.7717 85.6938 25.1673V24.8334C85.6938 24.1336 85.7972 23.5107 86.0039 22.9647C86.2107 22.4134 86.4916 21.9469 86.8468 21.5653C87.202 21.1836 87.6048 20.8947 88.0554 20.6985C88.506 20.5024 88.9725 20.4043 89.4549 20.4043C90.0698 20.4043 90.5999 20.5103 91.0452 20.7224C91.4958 20.9344 91.8642 21.2313 92.1505 21.613C92.4368 21.9893 92.6488 22.4346 92.7866 22.9488C92.9245 23.4577 92.9934 24.0143 92.9934 24.6187V25.2787H86.5685V24.078H91.5223V23.9666C91.5011 23.585 91.4216 23.2139 91.2838 22.8534C91.1513 22.4929 90.9392 22.1961 90.6477 21.9628C90.3561 21.7296 89.9585 21.613 89.4549 21.613C89.1209 21.613 88.8135 21.6845 88.5325 21.8277C88.2516 21.9655 88.0104 22.1722 87.8089 22.4479C87.6075 22.7235 87.4511 23.0602 87.3398 23.4577C87.2285 23.8553 87.1728 24.3139 87.1728 24.8334V25.1673C87.1728 25.5755 87.2285 25.9598 87.3398 26.3203C87.4564 26.6755 87.6234 26.9883 87.8407 27.2586C88.0634 27.529 88.3311 27.741 88.6438 27.8947C88.9619 28.0485 89.3224 28.1253 89.7253 28.1253C90.2448 28.1253 90.6848 28.0193 91.0452 27.8073C91.4057 27.5952 91.7211 27.3116 91.9915 26.9564L92.8821 27.6641C92.6965 27.9451 92.4606 28.2128 92.1744 28.4673C91.8881 28.7217 91.5356 28.9284 91.1168 29.0875C90.7033 29.2465 90.213 29.326 89.6457 29.326ZM96.8897 27.6403L99.1002 20.5634H100.07L99.8795 21.9708L97.6292 29.167H96.6829L96.8897 27.6403ZM95.4027 20.5634L97.2872 27.7198L97.4224 29.167H96.4285L93.9317 20.5634H95.4027ZM102.185 27.6641L103.983 20.5634H105.446L102.949 29.167H101.963L102.185 27.6641ZM100.285 20.5634L102.448 27.521L102.694 29.167H101.756L99.4421 21.9549L99.2513 20.5634H100.285ZM112.594 20.5634V29.167H111.115V20.5634H112.594ZM111.004 18.2812C111.004 18.0427 111.075 17.8412 111.218 17.6769C111.367 17.5126 111.584 17.4304 111.87 17.4304C112.151 17.4304 112.366 17.5126 112.515 17.6769C112.668 17.8412 112.745 18.0427 112.745 18.2812C112.745 18.5092 112.668 18.7053 112.515 18.8697C112.366 19.0287 112.151 19.1082 111.87 19.1082C111.584 19.1082 111.367 19.0287 111.218 18.8697C111.075 18.7053 111.004 18.5092 111.004 18.2812ZM116.427 22.4002V29.167H114.956V20.5634H116.347L116.427 22.4002ZM116.077 24.5392L115.465 24.5153C115.47 23.9269 115.557 23.3835 115.727 22.8852C115.897 22.3816 116.135 21.9443 116.443 21.5732C116.75 21.2021 117.116 20.9159 117.54 20.7144C117.969 20.5077 118.444 20.4043 118.963 20.4043C119.387 20.4043 119.769 20.4626 120.108 20.5793C120.448 20.6906 120.737 20.8708 120.975 21.12C121.219 21.3691 121.404 21.6925 121.532 22.0901C121.659 22.4823 121.723 22.9621 121.723 23.5293V29.167H120.244V23.5134C120.244 23.0628 120.177 22.7023 120.045 22.432C119.912 22.1563 119.719 21.9575 119.464 21.8356C119.21 21.7084 118.897 21.6448 118.526 21.6448C118.16 21.6448 117.826 21.7216 117.524 21.8754C117.227 22.0291 116.97 22.2411 116.753 22.5115C116.541 22.7818 116.374 23.092 116.252 23.4418C116.135 23.7864 116.077 24.1522 116.077 24.5392ZM123.949 16.9533H125.428V27.4972L125.301 29.167H123.949V16.9533ZM131.241 24.7936V24.9606C131.241 25.5861 131.166 26.1666 131.018 26.702C130.87 27.2321 130.652 27.6933 130.366 28.0856C130.08 28.4779 129.73 28.7827 129.316 29C128.903 29.2174 128.428 29.326 127.893 29.326C127.347 29.326 126.867 29.2333 126.454 29.0477C126.046 28.8569 125.701 28.5839 125.42 28.2287C125.139 27.8735 124.914 27.4441 124.744 26.9405C124.58 26.4369 124.466 25.8697 124.402 25.2389V24.5073C124.466 23.8712 124.58 23.3014 124.744 22.7978C124.914 22.2942 125.139 21.8648 125.42 21.5096C125.701 21.1491 126.046 20.8761 126.454 20.6906C126.862 20.4997 127.336 20.4043 127.877 20.4043C128.418 20.4043 128.898 20.5103 129.316 20.7224C129.735 20.9291 130.085 21.226 130.366 21.613C130.652 21.9999 130.87 22.4638 131.018 23.0045C131.166 23.5399 131.241 24.1363 131.241 24.7936ZM129.762 24.9606V24.7936C129.762 24.3642 129.722 23.9613 129.642 23.585C129.563 23.2033 129.436 22.8693 129.261 22.5831C129.086 22.2915 128.855 22.0636 128.569 21.8992C128.283 21.7296 127.93 21.6448 127.511 21.6448C127.14 21.6448 126.817 21.7084 126.541 21.8356C126.271 21.9628 126.04 22.1351 125.849 22.3525C125.659 22.5645 125.502 22.8084 125.38 23.084C125.264 23.3544 125.176 23.6353 125.118 23.9269V25.8432C125.203 26.2143 125.341 26.5721 125.531 26.9167C125.728 27.256 125.987 27.5343 126.311 27.7516C126.639 27.9689 127.045 28.0776 127.527 28.0776C127.925 28.0776 128.264 27.9981 128.545 27.8391C128.831 27.6747 129.062 27.4494 129.237 27.1632C129.417 26.8769 129.55 26.5456 129.634 26.1692C129.719 25.7929 129.762 25.39 129.762 24.9606ZM132.712 24.9606V24.7777C132.712 24.1575 132.802 23.5823 132.982 23.0522C133.162 22.5168 133.422 22.053 133.761 21.6607C134.101 21.2631 134.511 20.9556 134.994 20.7383C135.476 20.5156 136.017 20.4043 136.616 20.4043C137.22 20.4043 137.764 20.5156 138.246 20.7383C138.734 20.9556 139.147 21.2631 139.486 21.6607C139.831 22.053 140.093 22.5168 140.274 23.0522C140.454 23.5823 140.544 24.1575 140.544 24.7777V24.9606C140.544 25.5808 140.454 26.156 140.274 26.6861C140.093 27.2162 139.831 27.68 139.486 28.0776C139.147 28.4699 138.736 28.7774 138.254 29C137.777 29.2174 137.236 29.326 136.632 29.326C136.027 29.326 135.484 29.2174 135.002 29C134.519 28.7774 134.106 28.4699 133.761 28.0776C133.422 27.68 133.162 27.2162 132.982 26.6861C132.802 26.156 132.712 25.5808 132.712 24.9606ZM134.183 24.7777V24.9606C134.183 25.39 134.233 25.7955 134.334 26.1772C134.435 26.5536 134.586 26.8875 134.787 27.1791C134.994 27.4706 135.251 27.7012 135.558 27.8709C135.866 28.0352 136.224 28.1174 136.632 28.1174C137.035 28.1174 137.387 28.0352 137.689 27.8709C137.997 27.7012 138.251 27.4706 138.453 27.1791C138.654 26.8875 138.805 26.5536 138.906 26.1772C139.012 25.7955 139.065 25.39 139.065 24.9606V24.7777C139.065 24.3536 139.012 23.9534 138.906 23.577C138.805 23.1953 138.652 22.8587 138.445 22.5672C138.243 22.2703 137.989 22.037 137.681 21.8674C137.379 21.6978 137.024 21.613 136.616 21.613C136.213 21.613 135.858 21.6978 135.55 21.8674C135.248 22.037 134.994 22.2703 134.787 22.5672C134.586 22.8587 134.435 23.1953 134.334 23.577C134.233 23.9534 134.183 24.3536 134.183 24.7777ZM143.208 20.5634L145.092 23.6963L147.001 20.5634H148.726L145.911 24.8095L148.814 29.167H147.112L145.124 25.9386L143.136 29.167H141.427L144.321 24.8095L141.514 20.5634H143.208ZM154.324 16.9533H155.803V27.4972L155.676 29.167H154.324V16.9533ZM161.616 24.7936V24.9606C161.616 25.5861 161.542 26.1666 161.393 26.702C161.245 27.2321 161.027 27.6933 160.741 28.0856C160.455 28.4779 160.105 28.7827 159.691 29C159.278 29.2174 158.804 29.326 158.268 29.326C157.722 29.326 157.242 29.2333 156.829 29.0477C156.421 28.8569 156.076 28.5839 155.795 28.2287C155.514 27.8735 155.289 27.4441 155.119 26.9405C154.955 26.4369 154.841 25.8697 154.777 25.2389V24.5073C154.841 23.8712 154.955 23.3014 155.119 22.7978C155.289 22.2942 155.514 21.8648 155.795 21.5096C156.076 21.1491 156.421 20.8761 156.829 20.6906C157.237 20.4997 157.712 20.4043 158.252 20.4043C158.793 20.4043 159.273 20.5103 159.691 20.7224C160.11 20.9291 160.46 21.226 160.741 21.613C161.027 21.9999 161.245 22.4638 161.393 23.0045C161.542 23.5399 161.616 24.1363 161.616 24.7936ZM160.137 24.9606V24.7936C160.137 24.3642 160.097 23.9613 160.018 23.585C159.938 23.2033 159.811 22.8693 159.636 22.5831C159.461 22.2915 159.23 22.0636 158.944 21.8992C158.658 21.7296 158.305 21.6448 157.886 21.6448C157.515 21.6448 157.192 21.7084 156.916 21.8356C156.646 21.9628 156.415 22.1351 156.225 22.3525C156.034 22.5645 155.877 22.8084 155.755 23.084C155.639 23.3544 155.551 23.6353 155.493 23.9269V25.8432C155.578 26.2143 155.716 26.5721 155.907 26.9167C156.103 27.256 156.362 27.5343 156.686 27.7516C157.014 27.9689 157.42 28.0776 157.902 28.0776C158.3 28.0776 158.639 27.9981 158.92 27.8391C159.206 27.6747 159.437 27.4494 159.612 27.1632C159.792 26.8769 159.925 26.5456 160.01 26.1692C160.094 25.7929 160.137 25.39 160.137 24.9606ZM168.55 27.6959V23.2669C168.55 22.9276 168.481 22.6334 168.343 22.3843C168.21 22.1298 168.009 21.9337 167.739 21.7958C167.468 21.658 167.134 21.5891 166.737 21.5891C166.366 21.5891 166.04 21.6527 165.759 21.7799C165.483 21.9072 165.266 22.0742 165.107 22.2809C164.953 22.4876 164.876 22.7103 164.876 22.9488H163.405C163.405 22.6414 163.484 22.3366 163.643 22.0344C163.802 21.7322 164.03 21.4592 164.327 21.2154C164.629 20.9662 164.99 20.7701 165.409 20.627C165.833 20.4785 166.305 20.4043 166.824 20.4043C167.45 20.4043 168.001 20.5103 168.478 20.7224C168.96 20.9344 169.337 21.2551 169.607 21.6845C169.883 22.1086 170.021 22.6414 170.021 23.2828V27.2904C170.021 27.5767 170.044 27.8815 170.092 28.2048C170.145 28.5282 170.222 28.8065 170.323 29.0398V29.167H168.788C168.714 28.9974 168.656 28.7721 168.613 28.4911C168.571 28.2048 168.55 27.9398 168.55 27.6959ZM168.804 23.9507L168.82 24.9844H167.333C166.914 24.9844 166.54 25.0189 166.212 25.0878C165.883 25.1514 165.607 25.2495 165.385 25.382C165.162 25.5146 164.993 25.6815 164.876 25.883C164.759 26.0791 164.701 26.3097 164.701 26.5748C164.701 26.8451 164.762 27.0916 164.884 27.3143C165.006 27.5369 165.189 27.7145 165.433 27.847C165.682 27.9743 165.987 28.0379 166.347 28.0379C166.798 28.0379 167.195 27.9424 167.54 27.7516C167.884 27.5608 168.157 27.3275 168.359 27.0519C168.565 26.7762 168.677 26.5085 168.693 26.2488L169.321 26.9564C169.284 27.1791 169.183 27.4256 169.019 27.6959C168.854 27.9663 168.634 28.2261 168.359 28.4752C168.088 28.7191 167.765 28.9231 167.389 29.0875C167.018 29.2465 166.599 29.326 166.132 29.326C165.549 29.326 165.038 29.2121 164.598 28.9841C164.163 28.7562 163.824 28.4513 163.58 28.0697C163.341 27.6827 163.222 27.2507 163.222 26.7736C163.222 26.3124 163.312 25.9068 163.492 25.557C163.673 25.2018 163.932 24.9076 164.272 24.6743C164.611 24.4358 165.019 24.2555 165.496 24.1336C165.973 24.0117 166.506 23.9507 167.094 23.9507H168.804ZM175.937 20.5634V21.6925H171.285V20.5634H175.937ZM172.859 18.4721H174.33V27.036C174.33 27.3275 174.375 27.5475 174.466 27.6959C174.556 27.8444 174.672 27.9424 174.815 27.9902C174.959 28.0379 175.112 28.0617 175.277 28.0617C175.399 28.0617 175.526 28.0511 175.658 28.0299C175.796 28.0034 175.9 27.9822 175.968 27.9663L175.976 29.167C175.86 29.2041 175.706 29.2386 175.515 29.2704C175.33 29.3075 175.104 29.326 174.839 29.326C174.479 29.326 174.148 29.2545 173.845 29.1113C173.543 28.9682 173.302 28.7297 173.122 28.3957C172.947 28.0564 172.859 27.6005 172.859 27.028V18.4721ZM181.105 28.1174C181.455 28.1174 181.778 28.0458 182.075 27.9027C182.372 27.7596 182.616 27.5634 182.807 27.3143C182.998 27.0598 183.106 26.7709 183.133 26.4475H184.532C184.506 26.9564 184.334 27.4309 184.015 27.8709C183.703 28.3056 183.292 28.6581 182.783 28.9284C182.274 29.1935 181.715 29.326 181.105 29.326C180.458 29.326 179.894 29.2121 179.411 28.9841C178.934 28.7562 178.537 28.4434 178.219 28.0458C177.906 27.6482 177.67 27.1923 177.511 26.6781C177.357 26.1586 177.28 25.61 177.28 25.0322V24.6982C177.28 24.1204 177.357 23.5744 177.511 23.0602C177.67 22.5407 177.906 22.0821 178.219 21.6845C178.537 21.2869 178.934 20.9742 179.411 20.7462C179.894 20.5183 180.458 20.4043 181.105 20.4043C181.778 20.4043 182.367 20.5421 182.87 20.8178C183.374 21.0882 183.769 21.4592 184.055 21.931C184.347 22.3975 184.506 22.9276 184.532 23.5213H183.133C183.106 23.1662 183.006 22.8455 182.831 22.5592C182.661 22.2729 182.428 22.045 182.131 21.8754C181.839 21.7004 181.497 21.613 181.105 21.613C180.655 21.613 180.276 21.7031 179.968 21.8833C179.666 22.0583 179.425 22.2968 179.244 22.599C179.07 22.8958 178.942 23.2271 178.863 23.5929C178.789 23.9534 178.751 24.3218 178.751 24.6982V25.0322C178.751 25.4085 178.789 25.7796 178.863 26.1454C178.937 26.5112 179.062 26.8425 179.237 27.1393C179.417 27.4362 179.658 27.6747 179.96 27.855C180.268 28.0299 180.649 28.1174 181.105 28.1174ZM187.657 16.9533V29.167H186.186V16.9533H187.657ZM187.307 24.5392L186.695 24.5153C186.7 23.9269 186.788 23.3835 186.958 22.8852C187.127 22.3816 187.366 21.9443 187.673 21.5732C187.981 21.2021 188.346 20.9159 188.771 20.7144C189.2 20.5077 189.674 20.4043 190.194 20.4043C190.618 20.4043 191 20.4626 191.339 20.5793C191.678 20.6906 191.967 20.8708 192.206 21.12C192.449 21.3691 192.635 21.6925 192.762 22.0901C192.889 22.4823 192.953 22.9621 192.953 23.5293V29.167H191.474V23.5134C191.474 23.0628 191.408 22.7023 191.275 22.432C191.143 22.1563 190.949 21.9575 190.695 21.8356C190.44 21.7084 190.128 21.6448 189.757 21.6448C189.391 21.6448 189.057 21.7216 188.755 21.8754C188.458 22.0291 188.201 22.2411 187.983 22.5115C187.771 22.7818 187.604 23.092 187.482 23.4418C187.366 23.7864 187.307 24.1522 187.307 24.5392Z" fill="#D1D3D6"/>
<path d="M76.6343 44.7616H77.6839C78.1981 44.7616 78.6222 44.6767 78.9562 44.5071C79.2955 44.3322 79.5473 44.0963 79.7116 43.7994C79.8812 43.4973 79.9661 43.158 79.9661 42.7816C79.9661 42.3363 79.8918 41.9626 79.7434 41.6604C79.595 41.3583 79.3723 41.1303 79.0755 40.9766C78.7786 40.8229 78.4022 40.746 77.9463 40.746C77.5329 40.746 77.1671 40.8282 76.849 40.9925C76.5363 41.1515 76.2898 41.3795 76.1095 41.6763C75.9346 41.9732 75.8471 42.3231 75.8471 42.7259H74.3761C74.3761 42.1375 74.5245 41.6021 74.8214 41.1197C75.1182 40.6373 75.5344 40.253 76.0698 39.9667C76.6105 39.6805 77.236 39.5373 77.9463 39.5373C78.6461 39.5373 79.2584 39.6619 79.7832 39.9111C80.308 40.1549 80.7162 40.5207 81.0077 41.0084C81.2993 41.4908 81.4451 42.0925 81.4451 42.8134C81.4451 43.105 81.3761 43.4177 81.2383 43.7517C81.1058 44.0804 80.8964 44.3878 80.6101 44.6741C80.3292 44.9603 79.9634 45.1962 79.5128 45.3818C79.0622 45.562 78.5215 45.6521 77.8907 45.6521H76.6343V44.7616ZM76.6343 45.9702V45.0876H77.8907C78.6275 45.0876 79.2372 45.175 79.7196 45.35C80.202 45.5249 80.581 45.7582 80.8566 46.0497C81.1376 46.3413 81.3337 46.662 81.4451 47.0119C81.5617 47.3564 81.62 47.701 81.62 48.0456C81.62 48.5863 81.5272 49.066 81.3417 49.4848C81.1614 49.9036 80.9043 50.2588 80.5704 50.5503C80.2417 50.8419 79.8547 51.0619 79.4094 51.2103C78.9642 51.3587 78.4791 51.433 77.9543 51.433C77.4507 51.433 76.9763 51.3614 76.531 51.2183C76.091 51.0751 75.7013 50.8684 75.3621 50.598C75.0228 50.3224 74.7578 49.9858 74.5669 49.5882C74.3761 49.1853 74.2807 48.7268 74.2807 48.2126H75.7517C75.7517 48.6154 75.8392 48.968 76.0141 49.2701C76.1943 49.5723 76.4488 49.8082 76.7775 49.9778C77.1114 50.1421 77.5037 50.2243 77.9543 50.2243C78.4049 50.2243 78.7919 50.1474 79.1152 49.9937C79.4439 49.8347 79.6957 49.5961 79.8706 49.2781C80.0509 48.96 80.141 48.5598 80.141 48.0774C80.141 47.595 80.0403 47.2001 79.8388 46.8926C79.6374 46.5798 79.3511 46.3492 78.9801 46.2008C78.6143 46.0471 78.1822 45.9702 77.6839 45.9702H76.6343ZM89.2933 39.6805H89.4205V40.9289H89.2933C88.514 40.9289 87.862 41.0561 87.3372 41.3106C86.8124 41.5597 86.3963 41.8963 86.0888 42.3204C85.7813 42.7392 85.5587 43.211 85.4209 43.7358C85.2883 44.2606 85.2221 44.7934 85.2221 45.3341V47.0357C85.2221 47.5499 85.283 48.0058 85.405 48.4034C85.5269 48.7957 85.6939 49.127 85.9059 49.3973C86.118 49.6677 86.3565 49.8718 86.6216 50.0096C86.8919 50.1474 87.1729 50.2164 87.4644 50.2164C87.8037 50.2164 88.1059 50.1527 88.3709 50.0255C88.636 49.893 88.8586 49.7101 89.0388 49.4769C89.2244 49.2383 89.3649 48.9574 89.4603 48.634C89.5557 48.3106 89.6034 47.9555 89.6034 47.5685C89.6034 47.2239 89.561 46.8926 89.4762 46.5745C89.3914 46.2512 89.2615 45.9649 89.0866 45.7158C88.9116 45.4613 88.6916 45.2625 88.4266 45.1194C88.1668 44.9709 87.8567 44.8967 87.4962 44.8967C87.088 44.8967 86.7064 44.9975 86.3512 45.1989C86.0013 45.395 85.7124 45.6548 85.4845 45.9782C85.2618 46.2962 85.1346 46.6434 85.1028 47.0198L84.3235 47.0119C84.3978 46.4181 84.5356 45.9119 84.737 45.4931C84.9438 45.069 85.1982 44.7244 85.5004 44.4594C85.8078 44.189 86.1498 43.9929 86.5261 43.871C86.9078 43.7438 87.3107 43.6801 87.7348 43.6801C88.3126 43.6801 88.8109 43.7888 89.2297 44.0062C89.6485 44.2235 89.993 44.5151 90.2634 44.8808C90.5337 45.2413 90.7325 45.6495 90.8598 46.1054C90.9923 46.556 91.0586 47.0198 91.0586 47.4969C91.0586 48.0429 90.9817 48.5545 90.828 49.0316C90.6742 49.5087 90.4436 49.9275 90.1362 50.2879C89.834 50.6484 89.4603 50.9294 89.015 51.1308C88.5697 51.3322 88.0528 51.433 87.4644 51.433C86.8389 51.433 86.2929 51.3057 85.8264 51.0513C85.3599 50.7915 84.9729 50.447 84.6655 50.0176C84.358 49.5882 84.1274 49.1111 83.9737 48.5863C83.8199 48.0615 83.7431 47.5287 83.7431 46.988V46.2962C83.7431 45.4799 83.8252 44.6794 83.9896 43.8948C84.1539 43.1103 84.4375 42.3999 84.8404 41.7638C85.2486 41.1277 85.8131 40.6214 86.5341 40.245C87.255 39.8687 88.1748 39.6805 89.2933 39.6805ZM94.271 50.0414H94.4221C95.2703 50.0414 95.9594 49.9222 96.4895 49.6836C97.0196 49.4451 97.4278 49.1243 97.7141 48.7215C98.0003 48.3186 98.1964 47.8653 98.3025 47.3617C98.4085 46.8528 98.4615 46.3307 98.4615 45.7953V44.0221C98.4615 43.4973 98.4005 43.0308 98.2786 42.6226C98.162 42.2144 97.9977 41.8725 97.7856 41.5968C97.5789 41.3212 97.343 41.1118 97.0779 40.9686C96.8129 40.8255 96.5319 40.7539 96.2351 40.7539C95.8958 40.7539 95.591 40.8229 95.3206 40.9607C95.0556 41.0932 94.8303 41.2814 94.6447 41.5253C94.4645 41.7691 94.3267 42.0554 94.2312 42.384C94.1358 42.7127 94.0881 43.0705 94.0881 43.4575C94.0881 43.8021 94.1305 44.136 94.2153 44.4594C94.3002 44.7828 94.43 45.0743 94.605 45.3341C94.7799 45.5938 94.9973 45.8006 95.257 45.9543C95.5221 46.1027 95.8322 46.1769 96.1873 46.1769C96.516 46.1769 96.8235 46.1133 97.1097 45.9861C97.4013 45.8536 97.6584 45.676 97.881 45.4533C98.109 45.2254 98.2892 44.9683 98.4217 44.682C98.5596 44.3958 98.6391 44.0963 98.6603 43.7835H99.36C99.36 44.2235 99.2726 44.6582 99.0976 45.0876C98.928 45.5117 98.6894 45.8986 98.382 46.2485C98.0745 46.5984 97.7141 46.8793 97.3006 47.0914C96.8871 47.2981 96.4365 47.4015 95.9488 47.4015C95.3763 47.4015 94.8806 47.2902 94.4618 47.0675C94.0431 46.8449 93.6985 46.548 93.4281 46.1769C93.1631 45.8059 92.9643 45.3924 92.8318 44.9365C92.7045 44.4753 92.6409 44.0088 92.6409 43.537C92.6409 42.9857 92.7178 42.4688 92.8715 41.9864C93.0253 41.504 93.2532 41.08 93.5554 40.7142C93.8575 40.3431 94.2312 40.0542 94.6765 39.8475C95.1271 39.6407 95.6466 39.5373 96.2351 39.5373C96.8977 39.5373 97.4622 39.6699 97.9287 39.9349C98.3952 40.2 98.7743 40.5552 99.0658 41.0004C99.3627 41.4457 99.58 41.9467 99.7179 42.5033C99.8557 43.0599 99.9246 43.6324 99.9246 44.2208V44.7536C99.9246 45.3526 99.8848 45.9623 99.8053 46.5825C99.7311 47.1974 99.5853 47.7858 99.368 48.3477C99.1559 48.9096 98.8458 49.4132 98.4376 49.8585C98.0295 50.2985 97.4967 50.6484 96.8394 50.9082C96.1873 51.1626 95.3816 51.2898 94.4221 51.2898H94.271V50.0414ZM107.63 44.3799V51.2739H106.151V42.6703H107.55L107.63 44.3799ZM107.328 46.6461L106.644 46.6222C106.649 46.0338 106.726 45.4905 106.874 44.9922C107.023 44.4886 107.243 44.0512 107.534 43.6801C107.826 43.3091 108.189 43.0228 108.624 42.8214C109.058 42.6146 109.562 42.5113 110.134 42.5113C110.537 42.5113 110.908 42.5696 111.248 42.6862C111.587 42.7975 111.881 42.9751 112.13 43.2189C112.379 43.4628 112.573 43.7756 112.711 44.1572C112.849 44.5389 112.918 45.0001 112.918 45.5408V51.2739H111.446V45.6124C111.446 45.1618 111.37 44.8013 111.216 44.531C111.067 44.2606 110.855 44.0645 110.58 43.9425C110.304 43.8153 109.981 43.7517 109.61 43.7517C109.175 43.7517 108.812 43.8286 108.52 43.9823C108.229 44.136 107.995 44.3481 107.821 44.6184C107.646 44.8888 107.518 45.1989 107.439 45.5488C107.365 45.8933 107.328 46.2591 107.328 46.6461ZM112.902 45.835L111.916 46.1372C111.921 45.6654 111.998 45.2121 112.146 44.7775C112.3 44.3428 112.52 43.9558 112.806 43.6165C113.098 43.2773 113.456 43.0096 113.88 42.8134C114.304 42.612 114.789 42.5113 115.335 42.5113C115.796 42.5113 116.204 42.5722 116.559 42.6941C116.92 42.8161 117.222 43.0043 117.466 43.2587C117.715 43.5079 117.903 43.8286 118.03 44.2208C118.158 44.6131 118.221 45.0796 118.221 45.6203V51.2739H116.742V45.6044C116.742 45.122 116.665 44.7483 116.512 44.4833C116.363 44.2129 116.151 44.0247 115.876 43.9187C115.605 43.8074 115.282 43.7517 114.905 43.7517C114.582 43.7517 114.296 43.8074 114.047 43.9187C113.798 44.03 113.588 44.1837 113.418 44.3799C113.249 44.5707 113.119 44.7907 113.029 45.0399C112.944 45.289 112.902 45.5541 112.902 45.835ZM124.018 51.433C123.419 51.433 122.876 51.3322 122.388 51.1308C121.905 50.9241 121.489 50.6351 121.139 50.2641C120.795 49.893 120.53 49.453 120.344 48.9441C120.159 48.4352 120.066 47.8786 120.066 47.2743V46.9403C120.066 46.2406 120.169 45.6177 120.376 45.0717C120.583 44.5204 120.864 44.0539 121.219 43.6722C121.574 43.2905 121.977 43.0016 122.428 42.8055C122.878 42.6093 123.345 42.5113 123.827 42.5113C124.442 42.5113 124.972 42.6173 125.417 42.8293C125.868 43.0414 126.236 43.3382 126.523 43.7199C126.809 44.0963 127.021 44.5416 127.159 45.0558C127.297 45.5647 127.366 46.1213 127.366 46.7256V47.3856H120.941V46.1849H125.895V46.0736C125.873 45.6919 125.794 45.3208 125.656 44.9603C125.523 44.5999 125.311 44.303 125.02 44.0698C124.728 43.8365 124.331 43.7199 123.827 43.7199C123.493 43.7199 123.186 43.7915 122.905 43.9346C122.624 44.0724 122.383 44.2792 122.181 44.5548C121.98 44.8305 121.823 45.1671 121.712 45.5647C121.601 45.9623 121.545 46.4208 121.545 46.9403V47.2743C121.545 47.6824 121.601 48.0668 121.712 48.4272C121.829 48.7824 121.996 49.0952 122.213 49.3655C122.436 49.6359 122.703 49.8479 123.016 50.0017C123.334 50.1554 123.695 50.2323 124.097 50.2323C124.617 50.2323 125.057 50.1262 125.417 49.9142C125.778 49.7022 126.093 49.4186 126.364 49.0634L127.254 49.7711C127.069 50.052 126.833 50.3197 126.547 50.5742C126.26 50.8286 125.908 51.0354 125.489 51.1944C125.076 51.3534 124.585 51.433 124.018 51.433ZM134.093 48.9918C134.093 48.7798 134.045 48.5836 133.95 48.4034C133.859 48.2179 133.671 48.0509 133.385 47.9024C133.104 47.7487 132.68 47.6162 132.113 47.5049C131.636 47.4041 131.204 47.2849 130.817 47.147C130.435 47.0092 130.109 46.8422 129.839 46.6461C129.574 46.4499 129.369 46.2194 129.226 45.9543C129.083 45.6892 129.012 45.3791 129.012 45.024C129.012 44.6847 129.086 44.364 129.234 44.0618C129.388 43.7597 129.603 43.492 129.878 43.2587C130.159 43.0255 130.496 42.8426 130.888 42.71C131.28 42.5775 131.718 42.5113 132.2 42.5113C132.889 42.5113 133.478 42.6332 133.965 42.877C134.453 43.1209 134.827 43.4469 135.087 43.8551C135.346 44.258 135.476 44.7059 135.476 45.1989H134.005C134.005 44.9603 133.934 44.7298 133.791 44.5071C133.653 44.2792 133.449 44.091 133.178 43.9425C132.913 43.7941 132.587 43.7199 132.2 43.7199C131.792 43.7199 131.461 43.7835 131.206 43.9107C130.957 44.0327 130.774 44.189 130.658 44.3799C130.546 44.5707 130.491 44.7722 130.491 44.9842C130.491 45.1432 130.517 45.2864 130.57 45.4136C130.628 45.5355 130.729 45.6495 130.872 45.7555C131.015 45.8562 131.217 45.9516 131.477 46.0418C131.736 46.1319 132.068 46.222 132.471 46.3121C133.176 46.4712 133.756 46.662 134.212 46.8846C134.668 47.1073 135.007 47.3803 135.23 47.7037C135.452 48.027 135.564 48.4193 135.564 48.8805C135.564 49.2569 135.484 49.6014 135.325 49.9142C135.171 50.227 134.946 50.4973 134.649 50.7253C134.358 50.9479 134.008 51.1228 133.6 51.2501C133.197 51.372 132.744 51.433 132.24 51.433C131.482 51.433 130.84 51.2978 130.316 51.0274C129.791 50.7571 129.393 50.4072 129.123 49.9778C128.853 49.5484 128.717 49.0952 128.717 48.6181H130.196C130.218 49.021 130.334 49.3417 130.546 49.5802C130.758 49.8135 131.018 49.9805 131.326 50.0812C131.633 50.1766 131.938 50.2243 132.24 50.2243C132.643 50.2243 132.979 50.1713 133.25 50.0653C133.525 49.9593 133.735 49.8135 133.878 49.6279C134.021 49.4424 134.093 49.2304 134.093 48.9918ZM142.505 48.9918C142.505 48.7798 142.458 48.5836 142.362 48.4034C142.272 48.2179 142.084 48.0509 141.798 47.9024C141.517 47.7487 141.093 47.6162 140.526 47.5049C140.048 47.4041 139.616 47.2849 139.229 47.147C138.848 47.0092 138.522 46.8422 138.251 46.6461C137.986 46.4499 137.782 46.2194 137.639 45.9543C137.496 45.6892 137.424 45.3791 137.424 45.024C137.424 44.6847 137.499 44.364 137.647 44.0618C137.801 43.7597 138.015 43.492 138.291 43.2587C138.572 43.0255 138.909 42.8426 139.301 42.71C139.693 42.5775 140.131 42.5113 140.613 42.5113C141.302 42.5113 141.891 42.6332 142.378 42.877C142.866 43.1209 143.24 43.4469 143.499 43.8551C143.759 44.258 143.889 44.7059 143.889 45.1989H142.418C142.418 44.9603 142.346 44.7298 142.203 44.5071C142.065 44.2792 141.861 44.091 141.591 43.9425C141.326 43.7941 141 43.7199 140.613 43.7199C140.205 43.7199 139.873 43.7835 139.619 43.9107C139.37 44.0327 139.187 44.189 139.07 44.3799C138.959 44.5707 138.903 44.7722 138.903 44.9842C138.903 45.1432 138.93 45.2864 138.983 45.4136C139.041 45.5355 139.142 45.6495 139.285 45.7555C139.428 45.8562 139.63 45.9516 139.889 46.0418C140.149 46.1319 140.48 46.222 140.883 46.3121C141.588 46.4712 142.169 46.662 142.625 46.8846C143.081 47.1073 143.42 47.3803 143.643 47.7037C143.865 48.027 143.977 48.4193 143.977 48.8805C143.977 49.2569 143.897 49.6014 143.738 49.9142C143.584 50.227 143.359 50.4973 143.062 50.7253C142.771 50.9479 142.421 51.1228 142.012 51.2501C141.61 51.372 141.156 51.433 140.653 51.433C139.895 51.433 139.253 51.2978 138.728 51.0274C138.204 50.7571 137.806 50.4072 137.536 49.9778C137.265 49.5484 137.13 49.0952 137.13 48.6181H138.609C138.63 49.021 138.747 49.3417 138.959 49.5802C139.171 49.8135 139.431 49.9805 139.738 50.0812C140.046 50.1766 140.351 50.2243 140.653 50.2243C141.056 50.2243 141.392 50.1713 141.663 50.0653C141.938 49.9593 142.148 49.8135 142.291 49.6279C142.434 49.4424 142.505 49.2304 142.505 48.9918ZM150.982 49.8029V45.3738C150.982 45.0346 150.913 44.7404 150.775 44.4912C150.643 44.2368 150.441 44.0406 150.171 43.9028C149.9 43.765 149.566 43.696 149.169 43.696C148.798 43.696 148.472 43.7597 148.191 43.8869C147.915 44.0141 147.698 44.1811 147.539 44.3878C147.385 44.5946 147.308 44.8172 147.308 45.0558H145.837C145.837 44.7483 145.917 44.4435 146.076 44.1413C146.235 43.8392 146.463 43.5662 146.76 43.3223C147.062 43.0732 147.422 42.877 147.841 42.7339C148.265 42.5855 148.737 42.5113 149.256 42.5113C149.882 42.5113 150.433 42.6173 150.91 42.8293C151.393 43.0414 151.769 43.3621 152.039 43.7915C152.315 44.2155 152.453 44.7483 152.453 45.3897V49.3973C152.453 49.6836 152.477 49.9884 152.524 50.3118C152.578 50.6351 152.654 50.9135 152.755 51.1467V51.2739H151.22C151.146 51.1043 151.088 50.879 151.045 50.598C151.003 50.3118 150.982 50.0467 150.982 49.8029ZM151.236 46.0577L151.252 47.0914H149.765C149.347 47.0914 148.973 47.1258 148.644 47.1947C148.315 47.2584 148.04 47.3564 147.817 47.489C147.595 47.6215 147.425 47.7885 147.308 47.9899C147.192 48.1861 147.133 48.4166 147.133 48.6817C147.133 48.9521 147.194 49.1986 147.316 49.4212C147.438 49.6438 147.621 49.8214 147.865 49.954C148.114 50.0812 148.419 50.1448 148.779 50.1448C149.23 50.1448 149.627 50.0494 149.972 49.8585C150.317 49.6677 150.59 49.4345 150.791 49.1588C150.998 48.8831 151.109 48.6154 151.125 48.3557L151.753 49.0634C151.716 49.286 151.615 49.5325 151.451 49.8029C151.287 50.0732 151.067 50.333 150.791 50.5821C150.521 50.826 150.197 51.0301 149.821 51.1944C149.45 51.3534 149.031 51.433 148.565 51.433C147.981 51.433 147.47 51.319 147.03 51.091C146.595 50.8631 146.256 50.5583 146.012 50.1766C145.774 49.7896 145.654 49.3576 145.654 48.8805C145.654 48.4193 145.744 48.0138 145.925 47.6639C146.105 47.3087 146.365 47.0145 146.704 46.7813C147.043 46.5427 147.451 46.3625 147.928 46.2406C148.406 46.1186 148.938 46.0577 149.527 46.0577H151.236ZM160.341 42.6703H161.677V51.091C161.677 51.8491 161.523 52.4958 161.216 53.0312C160.908 53.5666 160.479 53.9722 159.927 54.2478C159.381 54.5288 158.751 54.6693 158.035 54.6693C157.738 54.6693 157.388 54.6216 156.985 54.5261C156.588 54.436 156.195 54.2796 155.809 54.057C155.427 53.8396 155.106 53.5454 154.846 53.1744L155.618 52.2997C155.978 52.7344 156.355 53.0365 156.747 53.2062C157.144 53.3758 157.537 53.4606 157.924 53.4606C158.39 53.4606 158.793 53.3732 159.132 53.1982C159.472 53.0233 159.734 52.7635 159.919 52.419C160.11 52.0797 160.206 51.6609 160.206 51.1626V44.5628L160.341 42.6703ZM154.417 47.0675V46.9005C154.417 46.2432 154.494 45.6468 154.648 45.1114C154.807 44.5707 155.032 44.1069 155.323 43.7199C155.62 43.3329 155.978 43.0361 156.397 42.8293C156.816 42.6173 157.288 42.5113 157.812 42.5113C158.353 42.5113 158.825 42.6067 159.228 42.7975C159.636 42.983 159.98 43.2561 160.261 43.6165C160.548 43.9717 160.773 44.4011 160.937 44.9047C161.102 45.4083 161.216 45.9782 161.279 46.6143V47.3458C161.221 47.9767 161.107 48.5439 160.937 49.0475C160.773 49.5511 160.548 49.9805 160.261 50.3356C159.98 50.6908 159.636 50.9638 159.228 51.1547C158.82 51.3402 158.342 51.433 157.796 51.433C157.282 51.433 156.816 51.3243 156.397 51.1069C155.983 50.8896 155.628 50.5848 155.331 50.1925C155.035 49.8002 154.807 49.339 154.648 48.8089C154.494 48.2735 154.417 47.6931 154.417 47.0675ZM155.888 46.9005V47.0675C155.888 47.4969 155.93 47.8998 156.015 48.2762C156.105 48.6525 156.241 48.9839 156.421 49.2701C156.606 49.5564 156.842 49.7817 157.128 49.946C157.415 50.105 157.757 50.1846 158.154 50.1846C158.642 50.1846 159.045 50.0812 159.363 49.8744C159.681 49.6677 159.933 49.3947 160.118 49.0554C160.309 48.7162 160.458 48.3477 160.564 47.9502V46.0338C160.505 45.7423 160.415 45.4613 160.293 45.1909C160.177 44.9153 160.023 44.6714 159.832 44.4594C159.646 44.2421 159.416 44.0698 159.14 43.9425C158.865 43.8153 158.541 43.7517 158.17 43.7517C157.767 43.7517 157.42 43.8365 157.128 44.0062C156.842 44.1705 156.606 44.3984 156.421 44.69C156.241 44.9763 156.105 45.3102 156.015 45.6919C155.93 46.0683 155.888 46.4712 155.888 46.9005ZM167.481 51.433C166.882 51.433 166.339 51.3322 165.851 51.1308C165.369 50.9241 164.953 50.6351 164.603 50.2641C164.258 49.893 163.993 49.453 163.808 48.9441C163.622 48.4352 163.53 47.8786 163.53 47.2743V46.9403C163.53 46.2406 163.633 45.6177 163.84 45.0717C164.046 44.5204 164.327 44.0539 164.683 43.6722C165.038 43.2905 165.441 43.0016 165.891 42.8055C166.342 42.6093 166.808 42.5113 167.291 42.5113C167.906 42.5113 168.436 42.6173 168.881 42.8293C169.332 43.0414 169.7 43.3382 169.986 43.7199C170.272 44.0963 170.485 44.5416 170.622 45.0558C170.76 45.5647 170.829 46.1213 170.829 46.7256V47.3856H164.404V46.1849H169.358V46.0736C169.337 45.6919 169.257 45.3208 169.12 44.9603C168.987 44.5999 168.775 44.303 168.483 44.0698C168.192 43.8365 167.794 43.7199 167.291 43.7199C166.957 43.7199 166.649 43.7915 166.368 43.9346C166.087 44.0724 165.846 44.2792 165.645 44.5548C165.443 44.8305 165.287 45.1671 165.176 45.5647C165.064 45.9623 165.009 46.4208 165.009 46.9403V47.2743C165.009 47.6824 165.064 48.0668 165.176 48.4272C165.292 48.7824 165.459 49.0952 165.676 49.3655C165.899 49.6359 166.167 49.8479 166.48 50.0017C166.798 50.1554 167.158 50.2323 167.561 50.2323C168.08 50.2323 168.52 50.1262 168.881 49.9142C169.241 49.7022 169.557 49.4186 169.827 49.0634L170.718 49.7711C170.532 50.052 170.296 50.3197 170.01 50.5742C169.724 50.8286 169.371 51.0354 168.953 51.1944C168.539 51.3534 168.049 51.433 167.481 51.433ZM177.556 48.9918C177.556 48.7798 177.508 48.5836 177.413 48.4034C177.323 48.2179 177.135 48.0509 176.848 47.9024C176.568 47.7487 176.143 47.6162 175.576 47.5049C175.099 47.4041 174.667 47.2849 174.28 47.147C173.898 47.0092 173.572 46.8422 173.302 46.6461C173.037 46.4499 172.833 46.2194 172.69 45.9543C172.547 45.6892 172.475 45.3791 172.475 45.024C172.475 44.6847 172.549 44.364 172.698 44.0618C172.851 43.7597 173.066 43.492 173.342 43.2587C173.623 43.0255 173.959 42.8426 174.352 42.71C174.744 42.5775 175.181 42.5113 175.664 42.5113C176.353 42.5113 176.941 42.6332 177.429 42.877C177.917 43.1209 178.29 43.4469 178.55 43.8551C178.81 44.258 178.94 44.7059 178.94 45.1989H177.469C177.469 44.9603 177.397 44.7298 177.254 44.5071C177.116 44.2792 176.912 44.091 176.642 43.9425C176.377 43.7941 176.051 43.7199 175.664 43.7199C175.255 43.7199 174.924 43.7835 174.67 43.9107C174.421 44.0327 174.238 44.189 174.121 44.3799C174.01 44.5707 173.954 44.7722 173.954 44.9842C173.954 45.1432 173.981 45.2864 174.034 45.4136C174.092 45.5355 174.193 45.6495 174.336 45.7555C174.479 45.8562 174.68 45.9516 174.94 46.0418C175.2 46.1319 175.531 46.222 175.934 46.3121C176.639 46.4712 177.22 46.662 177.675 46.8846C178.131 47.1073 178.471 47.3803 178.693 47.7037C178.916 48.027 179.027 48.4193 179.027 48.8805C179.027 49.2569 178.948 49.6014 178.789 49.9142C178.635 50.227 178.41 50.4973 178.113 50.7253C177.821 50.9479 177.471 51.1228 177.063 51.2501C176.66 51.372 176.207 51.433 175.703 51.433C174.945 51.433 174.304 51.2978 173.779 51.0274C173.254 50.7571 172.857 50.4072 172.586 49.9778C172.316 49.5484 172.181 49.0952 172.181 48.6181H173.66C173.681 49.021 173.798 49.3417 174.01 49.5802C174.222 49.8135 174.482 49.9805 174.789 50.0812C175.096 50.1766 175.401 50.2243 175.703 50.2243C176.106 50.2243 176.443 50.1713 176.713 50.0653C176.989 49.9593 177.198 49.8135 177.341 49.6279C177.485 49.4424 177.556 49.2304 177.556 48.9918Z" fill="#989CA4"/>
<path d="M246.558 36.66C246.558 36.4235 246.521 36.2148 246.447 36.0339C246.377 35.8483 246.252 35.6813 246.071 35.5329C245.895 35.3845 245.649 35.243 245.333 35.1085C245.023 34.974 244.628 34.8371 244.151 34.698C243.65 34.5496 243.197 34.3849 242.794 34.204C242.39 34.0184 242.045 33.8074 241.757 33.5708C241.47 33.3343 241.249 33.0629 241.096 32.7568C240.943 32.4507 240.867 32.1005 240.867 31.7062C240.867 31.3119 240.948 30.9478 241.11 30.6138C241.273 30.2799 241.504 29.99 241.806 29.7441C242.112 29.4937 242.476 29.2988 242.898 29.1597C243.32 29.0205 243.791 28.951 244.311 28.951C245.071 28.951 245.716 29.0971 246.245 29.3893C246.778 29.6769 247.184 30.0549 247.463 30.5234C247.741 30.9872 247.88 31.4835 247.88 32.0123H246.544C246.544 31.632 246.463 31.2957 246.301 31.0035C246.138 30.7066 245.892 30.4747 245.563 30.3077C245.234 30.1361 244.816 30.0503 244.311 30.0503C243.833 30.0503 243.439 30.1222 243.128 30.266C242.817 30.4097 242.585 30.6046 242.432 30.8504C242.284 31.0962 242.209 31.3769 242.209 31.6923C242.209 31.9056 242.254 32.1005 242.342 32.2767C242.434 32.4483 242.576 32.6084 242.766 32.7568C242.961 32.9052 243.207 33.0421 243.504 33.1673C243.805 33.2925 244.165 33.4131 244.582 33.5291C245.157 33.6914 245.654 33.8723 246.071 34.0718C246.488 34.2712 246.832 34.4962 247.101 34.7467C247.374 34.9925 247.576 35.2731 247.706 35.5886C247.841 35.8993 247.908 36.2519 247.908 36.6461C247.908 37.0589 247.824 37.4323 247.657 37.7663C247.49 38.1003 247.251 38.3855 246.941 38.6221C246.63 38.8587 246.257 39.0419 245.821 39.1718C245.389 39.297 244.907 39.3596 244.373 39.3596C243.905 39.3596 243.443 39.2947 242.989 39.1648C242.539 39.0349 242.128 38.8401 241.757 38.5804C241.391 38.3206 241.096 38.0005 240.874 37.6202C240.656 37.2352 240.547 36.7899 240.547 36.2843H241.882C241.882 36.6322 241.95 36.9314 242.084 37.1819C242.219 37.4277 242.402 37.6318 242.634 37.7941C242.87 37.9565 243.137 38.0771 243.434 38.1559C243.736 38.2302 244.049 38.2673 244.373 38.2673C244.842 38.2673 245.238 38.2023 245.563 38.0724C245.888 37.9426 246.134 37.757 246.301 37.5158C246.472 37.2746 246.558 36.9894 246.558 36.66ZM249.084 35.5399V35.3798C249.084 34.8371 249.163 34.3339 249.32 33.87C249.478 33.4015 249.705 32.9957 250.002 32.6524C250.299 32.3045 250.658 32.0355 251.08 31.8453C251.503 31.6505 251.976 31.5531 252.5 31.5531C253.029 31.5531 253.504 31.6505 253.926 31.8453C254.353 32.0355 254.715 32.3045 255.012 32.6524C255.313 32.9957 255.543 33.4015 255.7 33.87C255.858 34.3339 255.937 34.8371 255.937 35.3798V35.5399C255.937 36.0826 255.858 36.5858 255.7 37.0497C255.543 37.5135 255.313 37.9194 255.012 38.2673C254.715 38.6105 254.355 38.8795 253.933 39.0743C253.516 39.2645 253.043 39.3596 252.514 39.3596C251.985 39.3596 251.51 39.2645 251.087 39.0743C250.665 38.8795 250.304 38.6105 250.002 38.2673C249.705 37.9194 249.478 37.5135 249.32 37.0497C249.163 36.5858 249.084 36.0826 249.084 35.5399ZM250.371 35.3798V35.5399C250.371 35.9156 250.415 36.2704 250.503 36.6044C250.591 36.9337 250.723 37.2259 250.9 37.481C251.08 37.7362 251.305 37.9379 251.574 38.0864C251.844 38.2302 252.157 38.302 252.514 38.302C252.866 38.302 253.175 38.2302 253.439 38.0864C253.708 37.9379 253.931 37.7362 254.107 37.481C254.283 37.2259 254.416 36.9337 254.504 36.6044C254.596 36.2704 254.643 35.9156 254.643 35.5399V35.3798C254.643 35.0088 254.596 34.6586 254.504 34.3292C254.416 33.9953 254.281 33.7007 254.1 33.4456C253.924 33.1858 253.701 32.9818 253.432 32.8333C253.168 32.6849 252.857 32.6107 252.5 32.6107C252.147 32.6107 251.837 32.6849 251.568 32.8333C251.303 32.9818 251.08 33.1858 250.9 33.4456C250.723 33.7007 250.591 33.9953 250.503 34.3292C250.415 34.6586 250.371 35.0088 250.371 35.3798ZM258.838 32.8751V39.2205H257.551V31.6923H258.803L258.838 32.8751ZM261.19 31.6505L261.183 32.8472C261.076 32.8241 260.974 32.8101 260.877 32.8055C260.784 32.7962 260.677 32.7916 260.557 32.7916C260.26 32.7916 259.998 32.838 259.771 32.9307C259.543 33.0235 259.351 33.1534 259.193 33.3204C259.035 33.4873 258.91 33.6868 258.817 33.9187C258.729 34.146 258.671 34.3965 258.643 34.6702L258.282 34.8789C258.282 34.4243 258.326 33.9976 258.414 33.5987C258.507 33.1998 258.648 32.8472 258.838 32.5411C259.028 32.2303 259.27 31.9891 259.562 31.8175C259.859 31.6412 260.211 31.5531 260.619 31.5531C260.712 31.5531 260.819 31.5647 260.94 31.5879C261.06 31.6065 261.144 31.6273 261.19 31.6505ZM265.879 31.6923V32.6803H261.809V31.6923H265.879ZM263.187 29.8624H264.474V37.3558C264.474 37.6109 264.513 37.8034 264.592 37.9333C264.671 38.0632 264.773 38.149 264.898 38.1907C265.024 38.2325 265.158 38.2533 265.302 38.2533C265.409 38.2533 265.52 38.2441 265.636 38.2255C265.757 38.2023 265.847 38.1838 265.907 38.1699L265.914 39.2205C265.812 39.2529 265.678 39.2831 265.511 39.3109C265.348 39.3434 265.151 39.3596 264.919 39.3596C264.604 39.3596 264.314 39.297 264.05 39.1718C263.785 39.0465 263.574 38.8378 263.416 38.5456C263.263 38.2487 263.187 37.8498 263.187 37.3488V29.8624Z" fill="#D1D3D6"/>
<rect x="228.278" y="18.4444" width="50.4095" height="31.552" rx="5.59793" stroke="#2B2C30" stroke-width="1.01781"/>
</svg>
