<svg width="294" height="277" viewBox="0 0 294 277" fill="none" xmlns="http://www.w3.org/2000/svg">
<rect width="293.698" height="275.884" transform="translate(0.171753 0.790039)" fill="#1B1C1D"/>
<path d="M45.5871 37.4282C45.2994 37.1405 44.833 37.1405 44.5453 37.4282C44.2576 37.7159 44.2576 38.1823 44.5453 38.47L45.5871 37.4282ZM47.2763 40.1592L46.7554 40.6801C46.8935 40.8183 47.0809 40.8959 47.2763 40.8959C47.4717 40.8959 47.6591 40.8183 47.7972 40.6801L47.2763 40.1592ZM52.2174 36.2599C52.5051 35.9722 52.5051 35.5058 52.2174 35.2181C51.9297 34.9304 51.4633 34.9304 51.1756 35.2181L52.2174 36.2599ZM44.5453 38.47L46.7554 40.6801L47.7972 39.6383L45.5871 37.4282L44.5453 38.47ZM47.7972 40.6801L52.2174 36.2599L51.1756 35.2181L46.7554 39.6383L47.7972 40.6801ZM57.5901 42.7377V33.1606H56.1167V42.7377H57.5901ZM55.3822 30.9505H48.7497V32.4239H55.3822V30.9505ZM48.7497 30.9505C48.5966 30.9505 48.4843 30.9038 48.3428 30.7825C48.1629 30.6283 48.0175 30.4312 47.7502 30.1105C47.5089 29.821 47.1939 29.4686 46.7555 29.1964C46.3024 28.9152 45.753 28.7403 45.0662 28.7403V30.2138C45.4845 30.2138 45.7639 30.3151 45.9784 30.4483C46.2077 30.5906 46.3991 30.7907 46.6183 31.0537C46.8114 31.2855 47.0804 31.641 47.3839 31.9012C47.7259 32.1943 48.1661 32.4239 48.7497 32.4239V30.9505ZM45.0662 28.7403H40.6459V30.2138H45.0662V28.7403ZM38.4359 30.9505V42.7377H39.9093V30.9505H38.4359ZM40.646 44.9478H55.38V43.4744H40.646V44.9478ZM40.6459 28.7403C39.4252 28.7403 38.4359 29.7299 38.4359 30.9505H39.9093C39.9093 30.5435 40.2391 30.2138 40.6459 30.2138V28.7403ZM57.5901 33.1606C57.5901 31.9414 56.6043 30.9505 55.3822 30.9505V32.4239C55.7877 32.4239 56.1167 32.7523 56.1167 33.1606H57.5901ZM38.4359 42.7377C38.4359 43.9583 39.4254 44.9478 40.646 44.9478V43.4744C40.2391 43.4744 39.9093 43.1445 39.9093 42.7377H38.4359ZM56.1167 42.7377C56.1167 43.1445 55.7869 43.4744 55.38 43.4744V44.9478C56.6006 44.9478 57.5901 43.9583 57.5901 42.7377H56.1167Z" fill="#D1D3D6"/>
<path d="M76.3348 32.0674V41.844H75.059V32.0674H76.3348ZM79.4773 32.0674V33.1283H71.9233V32.0674H79.4773ZM79.7392 38.2919V38.1375C79.7392 37.6137 79.8153 37.128 79.9675 36.6804C80.1197 36.2282 80.339 35.8366 80.6255 35.5053C80.912 35.1696 81.259 34.9099 81.6663 34.7264C82.0737 34.5384 82.5303 34.4444 83.0361 34.4444C83.5464 34.4444 84.0053 34.5384 84.4126 34.7264C84.8245 34.9099 85.1736 35.1696 85.4601 35.5053C85.7511 35.8366 85.9727 36.2282 86.1249 36.6804C86.2771 37.128 86.3532 37.6137 86.3532 38.1375V38.2919C86.3532 38.8157 86.2771 39.3014 86.1249 39.749C85.9727 40.1966 85.7511 40.5883 85.4601 40.9241C85.1736 41.2553 84.8267 41.515 84.4194 41.703C84.0165 41.8865 83.5599 41.9783 83.0496 41.9783C82.5392 41.9783 82.0804 41.8865 81.673 41.703C81.2657 41.515 80.9165 41.2553 80.6255 40.9241C80.339 40.5883 80.1197 40.1966 79.9675 39.749C79.8153 39.3014 79.7392 38.8157 79.7392 38.2919ZM80.9814 38.1375V38.2919C80.9814 38.6545 81.0239 38.997 81.109 39.3193C81.1941 39.6371 81.3216 39.9191 81.4917 40.1653C81.6663 40.4115 81.8834 40.6062 82.1431 40.7495C82.4027 40.8883 82.7049 40.9577 83.0496 40.9577C83.3898 40.9577 83.6875 40.8883 83.9426 40.7495C84.2022 40.6062 84.4171 40.4115 84.5872 40.1653C84.7573 39.9191 84.8849 39.6371 84.97 39.3193C85.0595 38.997 85.1043 38.6545 85.1043 38.2919V38.1375C85.1043 37.7793 85.0595 37.4414 84.97 37.1235C84.8849 36.8012 84.7551 36.517 84.5805 36.2708C84.4104 36.0201 84.1955 35.8231 83.9359 35.6799C83.6807 35.5366 83.3808 35.465 83.0361 35.465C82.6959 35.465 82.396 35.5366 82.1364 35.6799C81.8812 35.8231 81.6663 36.0201 81.4917 36.2708C81.3216 36.517 81.1941 36.8012 81.109 37.1235C81.0239 37.4414 80.9814 37.7793 80.9814 38.1375ZM95.9015 40.4339V31.5302H97.1505V41.844H96.009L95.9015 40.4339ZM91.0132 38.2919V38.1509C91.0132 37.5958 91.0804 37.0922 91.2147 36.6401C91.3534 36.1835 91.5482 35.7918 91.7988 35.465C92.054 35.1382 92.3562 34.8875 92.7053 34.713C93.059 34.5339 93.4529 34.4444 93.8871 34.4444C94.3437 34.4444 94.7421 34.5249 95.0823 34.6861C95.427 34.8428 95.718 35.0733 95.9552 35.3777C96.197 35.6776 96.3872 36.0402 96.526 36.4655C96.6648 36.8908 96.761 37.372 96.8147 37.9092V38.5269C96.7655 39.0596 96.6692 39.5386 96.526 39.9639C96.3872 40.3891 96.197 40.7517 95.9552 41.0517C95.718 41.3516 95.427 41.5821 95.0823 41.7433C94.7376 41.9 94.3348 41.9783 93.8737 41.9783C93.4484 41.9783 93.059 41.8865 92.7053 41.703C92.3562 41.5194 92.054 41.2621 91.7988 40.9308C91.5482 40.5995 91.3534 40.2101 91.2147 39.7624C91.0804 39.3103 91.0132 38.8201 91.0132 38.2919ZM92.2622 38.1509V38.2919C92.2622 38.6545 92.298 38.9947 92.3696 39.3125C92.4457 39.6304 92.5621 39.9102 92.7188 40.1519C92.8754 40.3936 93.0746 40.5839 93.3164 40.7226C93.5581 40.8569 93.8468 40.9241 94.1826 40.9241C94.5944 40.9241 94.9324 40.8368 95.1965 40.6622C95.4651 40.4876 95.6799 40.2571 95.8411 39.9706C96.0023 39.6841 96.1276 39.373 96.2171 39.0372V37.419C96.1634 37.1728 96.0851 36.9355 95.9821 36.7072C95.8836 36.4745 95.7538 36.2685 95.5927 36.0895C95.436 35.9059 95.2412 35.7605 95.0085 35.653C94.7802 35.5456 94.5093 35.4919 94.196 35.4919C93.8558 35.4919 93.5626 35.5635 93.3164 35.7067C93.0746 35.8455 92.8754 36.038 92.7188 36.2842C92.5621 36.5259 92.4457 36.808 92.3696 37.1303C92.298 37.4481 92.2622 37.7883 92.2622 38.1509ZM98.7553 38.2919V38.1375C98.7553 37.6137 98.8314 37.128 98.9836 36.6804C99.1358 36.2282 99.3551 35.8366 99.6416 35.5053C99.9281 35.1696 100.275 34.9099 100.682 34.7264C101.09 34.5384 101.546 34.4444 102.052 34.4444C102.563 34.4444 103.021 34.5384 103.429 34.7264C103.841 34.9099 104.19 35.1696 104.476 35.5053C104.767 35.8366 104.989 36.2282 105.141 36.6804C105.293 37.128 105.369 37.6137 105.369 38.1375V38.2919C105.369 38.8157 105.293 39.3014 105.141 39.749C104.989 40.1966 104.767 40.5883 104.476 40.9241C104.19 41.2553 103.843 41.515 103.435 41.703C103.033 41.8865 102.576 41.9783 102.066 41.9783C101.555 41.9783 101.096 41.8865 100.689 41.703C100.282 41.515 99.9326 41.2553 99.6416 40.9241C99.3551 40.5883 99.1358 40.1966 98.9836 39.749C98.8314 39.3014 98.7553 38.8157 98.7553 38.2919ZM99.9975 38.1375V38.2919C99.9975 38.6545 100.04 38.997 100.125 39.3193C100.21 39.6371 100.338 39.9191 100.508 40.1653C100.682 40.4115 100.9 40.6062 101.159 40.7495C101.419 40.8883 101.721 40.9577 102.066 40.9577C102.406 40.9577 102.704 40.8883 102.959 40.7495C103.218 40.6062 103.433 40.4115 103.603 40.1653C103.773 39.9191 103.901 39.6371 103.986 39.3193C104.076 38.997 104.12 38.6545 104.12 38.2919V38.1375C104.12 37.7793 104.076 37.4414 103.986 37.1235C103.901 36.8012 103.771 36.517 103.597 36.2708C103.426 36.0201 103.212 35.8231 102.952 35.6799C102.697 35.5366 102.397 35.465 102.052 35.465C101.712 35.465 101.412 35.5366 101.152 35.6799C100.897 35.8231 100.682 36.0201 100.508 36.2708C100.338 36.517 100.21 36.8012 100.125 37.1235C100.04 37.4414 99.9975 37.7793 99.9975 38.1375Z" fill="#D1D3D6"/>
<path d="M256.766 36.1768V37.6674C256.766 38.4687 256.694 39.1447 256.551 39.6953C256.407 40.2459 256.201 40.6891 255.933 41.0248C255.664 41.3605 255.34 41.6045 254.959 41.7567C254.583 41.9044 254.158 41.9783 253.683 41.9783C253.307 41.9783 252.961 41.9313 252.643 41.8373C252.325 41.7433 252.038 41.5933 251.783 41.3874C251.533 41.177 251.318 40.9039 251.139 40.5682C250.96 40.2325 250.823 39.8251 250.729 39.3461C250.635 38.8671 250.588 38.3076 250.588 37.6674V36.1768C250.588 35.3755 250.66 34.704 250.803 34.1624C250.951 33.6207 251.159 33.1865 251.427 32.8597C251.696 32.5284 252.018 32.2912 252.394 32.1479C252.775 32.0047 253.2 31.9331 253.67 31.9331C254.051 31.9331 254.4 31.9801 254.718 32.0741C255.04 32.1636 255.326 32.3091 255.577 32.5105C255.828 32.7075 256.04 32.9716 256.215 33.3029C256.394 33.6297 256.531 34.0303 256.625 34.5048C256.719 34.9793 256.766 35.5366 256.766 36.1768ZM255.517 37.8689V35.9686C255.517 35.5299 255.49 35.1449 255.436 34.8137C255.387 34.4779 255.313 34.1915 255.214 33.9542C255.116 33.7169 254.991 33.5245 254.838 33.3767C254.691 33.229 254.518 33.1216 254.321 33.0544C254.129 32.9828 253.912 32.947 253.67 32.947C253.375 32.947 253.113 33.0029 252.884 33.1149C252.656 33.2223 252.464 33.3946 252.307 33.6319C252.155 33.8691 252.038 34.1803 251.958 34.5652C251.877 34.9502 251.837 35.418 251.837 35.9686V37.8689C251.837 38.3076 251.862 38.6948 251.911 39.0305C251.965 39.3663 252.043 39.6572 252.146 39.9034C252.249 40.1452 252.374 40.3444 252.522 40.501C252.67 40.6577 252.84 40.7741 253.032 40.8502C253.229 40.9218 253.446 40.9577 253.683 40.9577C253.988 40.9577 254.254 40.8995 254.483 40.7831C254.711 40.6667 254.901 40.4854 255.053 40.2392C255.21 39.9885 255.326 39.6684 255.402 39.279C255.479 38.885 255.517 38.415 255.517 37.8689Z" fill="#989CA4"/>
<path d="M55.8269 76.9153C54.4553 75.5436 52.7468 74.5572 50.8731 74.0552M45.1529 74.0552C43.2793 74.5572 41.5707 75.5436 40.1991 76.9153M48.013 78.8364V84.73L45.0662 87.6768M56.1167 84.73C56.1167 89.2055 52.4886 92.8337 48.013 92.8337C43.5375 92.8337 39.9093 89.2055 39.9093 84.73C39.9093 80.2544 43.5375 76.6263 48.013 76.6263C52.4886 76.6263 56.1167 80.2544 56.1167 84.73Z" stroke="#D1D3D6" stroke-width="1.4734" stroke-linecap="round" stroke-linejoin="round"/>
<path d="M72.7223 79.2163H75.9588C76.693 79.2163 77.3129 79.3282 77.8188 79.552C78.3291 79.7758 78.7163 80.1071 78.9804 80.5458C79.249 80.98 79.3833 81.515 79.3833 82.1506C79.3833 82.5983 79.2915 83.0079 79.108 83.3794C78.929 83.7465 78.6693 84.0598 78.3291 84.3195C77.9934 84.5746 77.5905 84.7649 77.1205 84.8902L76.7579 85.0312H73.7161L73.7027 83.977H75.9991C76.4647 83.977 76.8519 83.8964 77.1607 83.7353C77.4696 83.5697 77.7024 83.3481 77.8591 83.0705C78.0158 82.793 78.0941 82.4864 78.0941 82.1506C78.0941 81.7746 78.0202 81.4456 77.8725 81.1636C77.7248 80.8815 77.492 80.6644 77.1742 80.5122C76.8608 80.3556 76.4557 80.2772 75.9588 80.2772H74.0183V88.9929H72.7223V79.2163ZM78.4365 88.9929L76.0595 84.5612L77.4092 84.5545L79.8198 88.9123V88.9929H78.4365ZM84.0232 89.1272C83.5173 89.1272 83.0585 89.0422 82.6467 88.8721C82.2393 88.6975 81.8879 88.4535 81.5925 88.1402C81.3015 87.8268 81.0777 87.4552 80.921 87.0255C80.7643 86.5958 80.686 86.1257 80.686 85.6154V85.3334C80.686 84.7425 80.7733 84.2165 80.9478 83.7554C81.1224 83.2899 81.3597 82.896 81.6596 82.5736C81.9595 82.2513 82.2997 82.0074 82.6802 81.8417C83.0607 81.6761 83.4547 81.5933 83.862 81.5933C84.3813 81.5933 84.829 81.6828 85.205 81.8619C85.5855 82.0409 85.8966 82.2916 86.1383 82.6139C86.3801 82.9318 86.5591 83.3078 86.6755 83.742C86.7919 84.1718 86.8501 84.6418 86.8501 85.1521V85.7094H81.4246V84.6955H85.6079V84.6015C85.59 84.2792 85.5228 83.9658 85.4064 83.6614C85.2945 83.357 85.1154 83.1063 84.8692 82.9094C84.623 82.7124 84.2873 82.6139 83.862 82.6139C83.58 82.6139 83.3204 82.6744 83.0831 82.7952C82.8459 82.9116 82.6422 83.0862 82.4721 83.319C82.302 83.5518 82.1699 83.836 82.0759 84.1718C81.9819 84.5075 81.9349 84.8947 81.9349 85.3334V85.6154C81.9349 85.9601 81.9819 86.2846 82.0759 86.589C82.1744 86.889 82.3154 87.1531 82.4989 87.3814C82.687 87.6097 82.913 87.7887 83.1771 87.9186C83.4457 88.0484 83.7501 88.1133 84.0903 88.1133C84.529 88.1133 84.9006 88.0238 85.205 87.8447C85.5094 87.6656 85.7757 87.4262 86.004 87.1262L86.7561 87.7238C86.5994 87.9611 86.4002 88.1872 86.1585 88.402C85.9167 88.6169 85.6191 88.7915 85.2654 88.9258C84.9162 89.0601 84.5022 89.1272 84.0232 89.1272ZM89.536 83.1713V88.9929H88.287V81.7276H89.4688L89.536 83.1713ZM89.2808 85.085L88.7033 85.0648C88.7078 84.5679 88.7727 84.1091 88.8981 83.6883C89.0234 83.263 89.2092 82.8937 89.4554 82.5804C89.7016 82.267 90.0082 82.0253 90.3753 81.8552C90.7424 81.6806 91.1677 81.5933 91.6511 81.5933C91.9913 81.5933 92.3047 81.6425 92.5912 81.741C92.8777 81.835 93.1261 81.985 93.3365 82.1909C93.5469 82.3968 93.7103 82.6609 93.8267 82.9832C93.9431 83.3056 94.0013 83.695 94.0013 84.1516V88.9929H92.759V84.212C92.759 83.8315 92.6941 83.5271 92.5643 83.2988C92.439 83.0705 92.2599 82.9049 92.0271 82.8019C91.7944 82.6945 91.5213 82.6408 91.2079 82.6408C90.8409 82.6408 90.5342 82.7057 90.288 82.8355C90.0418 82.9653 89.8449 83.1444 89.6971 83.3727C89.5494 83.601 89.442 83.8629 89.3748 84.1583C89.3121 84.4493 89.2808 84.7582 89.2808 85.085ZM93.9878 84.4001L93.1552 84.6552C93.1597 84.2568 93.2246 83.8741 93.3499 83.507C93.4798 83.1399 93.6655 82.8131 93.9073 82.5266C94.1535 82.2401 94.4556 82.0141 94.8137 81.8485C95.1719 81.6784 95.5815 81.5933 96.0425 81.5933C96.432 81.5933 96.7767 81.6448 97.0766 81.7477C97.381 81.8507 97.6362 82.0096 97.8421 82.2245C98.0525 82.4349 98.2114 82.7057 98.3188 83.037C98.4263 83.3682 98.48 83.7622 98.48 84.2188V88.9929H97.231V84.2053C97.231 83.798 97.1661 83.4824 97.0363 83.2585C96.911 83.0302 96.7319 82.8713 96.4991 82.7818C96.2708 82.6878 95.9978 82.6408 95.6799 82.6408C95.4069 82.6408 95.1651 82.6878 94.9548 82.7818C94.7444 82.8758 94.5675 83.0056 94.4243 83.1713C94.281 83.3324 94.1714 83.5182 94.0953 83.7286C94.0236 83.939 93.9878 84.1628 93.9878 84.4001ZM101.71 81.7276V88.9929H100.461V81.7276H101.71ZM100.367 79.8005C100.367 79.599 100.427 79.4289 100.548 79.2901C100.673 79.1514 100.857 79.082 101.099 79.082C101.336 79.082 101.517 79.1514 101.643 79.2901C101.772 79.4289 101.837 79.599 101.837 79.8005C101.837 79.993 101.772 80.1586 101.643 80.2974C101.517 80.4317 101.336 80.4988 101.099 80.4988C100.857 80.4988 100.673 80.4317 100.548 80.2974C100.427 80.1586 100.367 79.993 100.367 79.8005ZM104.946 83.2787V88.9929H103.704V81.7276H104.879L104.946 83.2787ZM104.651 85.085L104.134 85.0648C104.138 84.5679 104.212 84.1091 104.355 83.6883C104.499 83.263 104.7 82.8937 104.96 82.5804C105.219 82.267 105.528 82.0253 105.886 81.8552C106.249 81.6806 106.65 81.5933 107.088 81.5933C107.446 81.5933 107.769 81.6425 108.055 81.741C108.342 81.835 108.586 81.9872 108.787 82.1976C108.993 82.408 109.15 82.6811 109.257 83.0168C109.365 83.3481 109.418 83.7532 109.418 84.2322V88.9929H108.169V84.2188C108.169 83.8383 108.113 83.5339 108.001 83.3056C107.89 83.0728 107.726 82.9049 107.511 82.8019C107.296 82.6945 107.032 82.6408 106.719 82.6408C106.41 82.6408 106.128 82.7057 105.873 82.8355C105.622 82.9653 105.405 83.1444 105.222 83.3727C105.043 83.601 104.901 83.8629 104.799 84.1583C104.7 84.4493 104.651 84.7582 104.651 85.085ZM115.885 87.5828V78.6791H117.133V88.9929H115.992L115.885 87.5828ZM110.996 85.4408V85.2998C110.996 84.7447 111.063 84.2411 111.198 83.789C111.336 83.3324 111.531 82.9407 111.782 82.6139C112.037 82.2872 112.339 82.0365 112.688 81.8619C113.042 81.6828 113.436 81.5933 113.87 81.5933C114.327 81.5933 114.725 81.6739 115.065 81.835C115.41 81.9917 115.701 82.2222 115.938 82.5266C116.18 82.8266 116.37 83.1892 116.509 83.6144C116.648 84.0397 116.744 84.5209 116.798 85.0581V85.6758C116.748 86.2085 116.652 86.6875 116.509 87.1128C116.37 87.5381 116.18 87.9007 115.938 88.2006C115.701 88.5005 115.41 88.731 115.065 88.8922C114.721 89.0489 114.318 89.1272 113.857 89.1272C113.431 89.1272 113.042 89.0354 112.688 88.8519C112.339 88.6684 112.037 88.411 111.782 88.0797C111.531 87.7485 111.336 87.359 111.198 86.9114C111.063 86.4592 110.996 85.9691 110.996 85.4408ZM112.245 85.2998V85.4408C112.245 85.8034 112.281 86.1436 112.353 86.4615C112.429 86.7793 112.545 87.0591 112.702 87.3008C112.858 87.5425 113.058 87.7328 113.299 87.8716C113.541 88.0059 113.83 88.073 114.166 88.073C114.577 88.073 114.915 87.9857 115.179 87.8111C115.448 87.6365 115.663 87.406 115.824 87.1195C115.985 86.833 116.111 86.5219 116.2 86.1862V84.5679C116.146 84.3217 116.068 84.0845 115.965 83.8562C115.867 83.6234 115.737 83.4175 115.576 83.2384C115.419 83.0549 115.224 82.9094 114.991 82.8019C114.763 82.6945 114.492 82.6408 114.179 82.6408C113.839 82.6408 113.546 82.7124 113.299 82.8557C113.058 82.9944 112.858 83.1869 112.702 83.4331C112.545 83.6749 112.429 83.9569 112.353 84.2792C112.281 84.597 112.245 84.9372 112.245 85.2998ZM122.082 89.1272C121.576 89.1272 121.118 89.0422 120.706 88.8721C120.298 88.6975 119.947 88.4535 119.651 88.1402C119.361 87.8268 119.137 87.4552 118.98 87.0255C118.823 86.5958 118.745 86.1257 118.745 85.6154V85.3334C118.745 84.7425 118.832 84.2165 119.007 83.7554C119.181 83.2899 119.419 82.896 119.719 82.5736C120.019 82.2513 120.359 82.0074 120.739 81.8417C121.12 81.6761 121.514 81.5933 121.921 81.5933C122.44 81.5933 122.888 81.6828 123.264 81.8619C123.645 82.0409 123.956 82.2916 124.197 82.6139C124.439 82.9318 124.618 83.3078 124.735 83.742C124.851 84.1718 124.909 84.6418 124.909 85.1521V85.7094H119.484V84.6955H123.667V84.6015C123.649 84.2792 123.582 83.9658 123.465 83.6614C123.354 83.357 123.174 83.1063 122.928 82.9094C122.682 82.7124 122.346 82.6139 121.921 82.6139C121.639 82.6139 121.379 82.6744 121.142 82.7952C120.905 82.9116 120.701 83.0862 120.531 83.319C120.361 83.5518 120.229 83.836 120.135 84.1718C120.041 84.5075 119.994 84.8947 119.994 85.3334V85.6154C119.994 85.9601 120.041 86.2846 120.135 86.589C120.233 86.889 120.374 87.1531 120.558 87.3814C120.746 87.6097 120.972 87.7887 121.236 87.9186C121.505 88.0484 121.809 88.1133 122.149 88.1133C122.588 88.1133 122.96 88.0238 123.264 87.8447C123.568 87.6656 123.835 87.4262 124.063 87.1262L124.815 87.7238C124.658 87.9611 124.459 88.1872 124.218 88.402C123.976 88.6169 123.678 88.7915 123.324 88.9258C122.975 89.0601 122.561 89.1272 122.082 89.1272ZM127.602 82.8691V88.9929H126.36V81.7276H127.568L127.602 82.8691ZM129.871 81.6873L129.865 82.8422C129.762 82.8199 129.663 82.8064 129.569 82.8019C129.48 82.793 129.377 82.7885 129.26 82.7885C128.974 82.7885 128.721 82.8333 128.501 82.9228C128.282 83.0123 128.096 83.1377 127.944 83.2988C127.792 83.46 127.671 83.6525 127.582 83.8763C127.497 84.0956 127.441 84.3374 127.414 84.6015L127.065 84.8029C127.065 84.3642 127.107 83.9524 127.192 83.5674C127.282 83.1824 127.418 82.8422 127.602 82.5468C127.785 82.2469 128.018 82.0141 128.3 81.8485C128.587 81.6784 128.927 81.5933 129.321 81.5933C129.41 81.5933 129.513 81.6045 129.63 81.6269C129.746 81.6448 129.827 81.6649 129.871 81.6873ZM135.25 87.0658C135.25 86.8867 135.21 86.7211 135.129 86.5689C135.053 86.4122 134.894 86.2712 134.652 86.1459C134.415 86.0161 134.057 85.9041 133.578 85.8101C133.175 85.7251 132.81 85.6244 132.483 85.508C132.161 85.3916 131.886 85.2506 131.657 85.085C131.434 84.9193 131.261 84.7246 131.14 84.5008C131.02 84.2769 130.959 84.0151 130.959 83.7151C130.959 83.4287 131.022 83.1578 131.147 82.9027C131.277 82.6475 131.458 82.4214 131.691 82.2245C131.928 82.0275 132.213 81.8731 132.544 81.7612C132.875 81.6493 133.244 81.5933 133.652 81.5933C134.234 81.5933 134.731 81.6963 135.142 81.9022C135.554 82.1081 135.87 82.3834 136.089 82.7281C136.308 83.0683 136.418 83.4466 136.418 83.8629H135.176C135.176 83.6614 135.116 83.4667 134.995 83.2787C134.878 83.0862 134.706 82.9273 134.478 82.8019C134.254 82.6766 133.978 82.6139 133.652 82.6139C133.307 82.6139 133.027 82.6677 132.812 82.7751C132.602 82.878 132.448 83.0101 132.349 83.1713C132.255 83.3324 132.208 83.5025 132.208 83.6816C132.208 83.8159 132.23 83.9367 132.275 84.0442C132.324 84.1471 132.409 84.2434 132.53 84.3329C132.651 84.418 132.821 84.4985 133.041 84.5746C133.26 84.6507 133.54 84.7268 133.88 84.8029C134.475 84.9372 134.966 85.0984 135.351 85.2864C135.735 85.4744 136.022 85.7049 136.21 85.978C136.398 86.2511 136.492 86.5823 136.492 86.9718C136.492 87.2896 136.425 87.5806 136.291 87.8447C136.161 88.1088 135.971 88.3371 135.72 88.5296C135.474 88.7176 135.178 88.8653 134.833 88.9728C134.493 89.0757 134.111 89.1272 133.685 89.1272C133.045 89.1272 132.503 89.0131 132.06 88.7848C131.617 88.5565 131.281 88.261 131.053 87.8984C130.825 87.5358 130.711 87.1531 130.711 86.7502H131.96C131.977 87.0904 132.076 87.3612 132.255 87.5627C132.434 87.7596 132.653 87.9007 132.913 87.9857C133.173 88.0663 133.43 88.1066 133.685 88.1066C134.025 88.1066 134.31 88.0618 134.538 87.9723C134.771 87.8828 134.948 87.7596 135.068 87.603C135.189 87.4463 135.25 87.2672 135.25 87.0658Z" fill="#D1D3D6"/>
<path d="M256.766 83.3257V84.8164C256.766 85.6177 256.694 86.2936 256.551 86.8442C256.407 87.3948 256.201 87.838 255.933 88.1737C255.664 88.5095 255.34 88.7534 254.959 88.9056C254.583 89.0534 254.158 89.1272 253.683 89.1272C253.307 89.1272 252.961 89.0802 252.643 88.9862C252.325 88.8922 252.038 88.7422 251.783 88.5363C251.533 88.3259 251.318 88.0529 251.139 87.7171C250.96 87.3814 250.823 86.974 250.729 86.495C250.635 86.0161 250.588 85.4565 250.588 84.8164V83.3257C250.588 82.5244 250.66 81.8529 250.803 81.3113C250.951 80.7696 251.159 80.3354 251.427 80.0086C251.696 79.6774 252.018 79.4401 252.394 79.2969C252.775 79.1536 253.2 79.082 253.67 79.082C254.051 79.082 254.4 79.129 254.718 79.223C255.04 79.3125 255.326 79.458 255.577 79.6595C255.828 79.8564 256.04 80.1205 256.215 80.4518C256.394 80.7786 256.531 81.1792 256.625 81.6537C256.719 82.1282 256.766 82.6856 256.766 83.3257ZM255.517 85.0178V83.1175C255.517 82.6788 255.49 82.2939 255.436 81.9626C255.387 81.6269 255.313 81.3404 255.214 81.1031C255.116 80.8659 254.991 80.6734 254.838 80.5257C254.691 80.3779 254.518 80.2705 254.321 80.2033C254.129 80.1317 253.912 80.0959 253.67 80.0959C253.375 80.0959 253.113 80.1519 252.884 80.2638C252.656 80.3712 252.464 80.5436 252.307 80.7808C252.155 81.0181 252.038 81.3292 251.958 81.7142C251.877 82.0991 251.837 82.5669 251.837 83.1175V85.0178C251.837 85.4565 251.862 85.8437 251.911 86.1795C251.965 86.5152 252.043 86.8062 252.146 87.0524C252.249 87.2941 252.374 87.4933 252.522 87.65C252.67 87.8067 252.84 87.923 253.032 87.9991C253.229 88.0708 253.446 88.1066 253.683 88.1066C253.988 88.1066 254.254 88.0484 254.483 87.932C254.711 87.8156 254.901 87.6343 255.053 87.3881C255.21 87.1374 255.326 86.8174 255.402 86.4279C255.479 86.034 255.517 85.5639 255.517 85.0178Z" fill="#989CA4"/>
<path d="M39.9093 125.248H45.8029M39.9093 128.195H56.1167M39.9093 131.142H44.3295M39.9093 134.088H48.7497M46.5396 131.142H56.1167M51.6965 134.088H56.1167M39.9093 137.035H41.3827M44.3295 137.035H47.2763" stroke="#D1D3D6" stroke-width="1.4734" stroke-linecap="round" stroke-linejoin="round"/>
<path d="M75.3679 136.142H73.3266L73.3401 135.087H75.3679C76.0662 135.087 76.6482 134.942 77.1137 134.651C77.5793 134.355 77.9285 133.944 78.1612 133.415C78.3985 132.883 78.5171 132.26 78.5171 131.549V130.951C78.5171 130.392 78.45 129.895 78.3157 129.46C78.1814 129.022 77.9844 128.652 77.7248 128.353C77.4651 128.048 77.1473 127.818 76.7713 127.661C76.3997 127.504 75.9722 127.426 75.4888 127.426H73.2863V126.365H75.4888C76.1289 126.365 76.7131 126.472 77.2413 126.687C77.7695 126.898 78.2239 127.204 78.6044 127.607C78.9894 128.006 79.2848 128.489 79.4908 129.058C79.6967 129.622 79.7996 130.257 79.7996 130.965V131.549C79.7996 132.256 79.6967 132.894 79.4908 133.462C79.2848 134.026 78.9871 134.508 78.5977 134.906C78.2127 135.304 77.7472 135.611 77.201 135.826C76.6594 136.036 76.0483 136.142 75.3679 136.142ZM74.0183 126.365V136.142H72.7223V126.365H74.0183ZM82.8011 130.018V136.142H81.5589V128.876H82.7675L82.8011 130.018ZM85.0707 128.836L85.064 129.991C84.961 129.969 84.8625 129.955 84.7685 129.951C84.679 129.942 84.576 129.937 84.4596 129.937C84.1732 129.937 83.9202 129.982 83.7009 130.071C83.4815 130.161 83.2958 130.286 83.1436 130.448C82.9914 130.609 82.8705 130.801 82.781 131.025C82.6959 131.244 82.64 131.486 82.6131 131.75L82.2639 131.952C82.2639 131.513 82.3065 131.101 82.3915 130.716C82.481 130.331 82.6176 129.991 82.8011 129.695C82.9846 129.396 83.2174 129.163 83.4994 128.997C83.7859 128.827 84.1261 128.742 84.5201 128.742C84.6096 128.742 84.7126 128.753 84.829 128.776C84.9453 128.793 85.0259 128.814 85.0707 128.836ZM90.2343 134.899V131.159C90.2343 130.873 90.1761 130.624 90.0597 130.414C89.9478 130.199 89.7777 130.033 89.5494 129.917C89.3211 129.801 89.0391 129.742 88.7033 129.742C88.39 129.742 88.1147 129.796 87.8774 129.904C87.6447 130.011 87.4611 130.152 87.3268 130.327C87.197 130.501 87.1321 130.689 87.1321 130.891H85.8899C85.8899 130.631 85.957 130.374 86.0913 130.118C86.2256 129.863 86.4181 129.633 86.6688 129.427C86.9239 129.216 87.2283 129.051 87.582 128.93C87.9401 128.805 88.3385 128.742 88.7772 128.742C89.3054 128.742 89.771 128.832 90.1739 129.011C90.5812 129.19 90.8991 129.46 91.1274 129.823C91.3601 130.181 91.4765 130.631 91.4765 131.173V134.557C91.4765 134.799 91.4967 135.056 91.537 135.329C91.5817 135.602 91.6466 135.837 91.7317 136.034V136.142H90.4357C90.3731 135.998 90.3238 135.808 90.288 135.571C90.2522 135.329 90.2343 135.105 90.2343 134.899ZM90.4492 131.737L90.4626 132.61H89.207C88.8533 132.61 88.5377 132.639 88.2602 132.697C87.9826 132.751 87.7499 132.833 87.5618 132.945C87.3738 133.057 87.2306 133.198 87.1321 133.368C87.0336 133.534 86.9844 133.729 86.9844 133.953C86.9844 134.181 87.0359 134.389 87.1388 134.577C87.2418 134.765 87.3962 134.915 87.6021 135.027C87.8125 135.134 88.0699 135.188 88.3743 135.188C88.7548 135.188 89.0906 135.108 89.3815 134.946C89.6725 134.785 89.903 134.588 90.0732 134.355C90.2477 134.123 90.3417 133.897 90.3552 133.677L90.8856 134.275C90.8543 134.463 90.7692 134.671 90.6305 134.899C90.4917 135.128 90.3059 135.347 90.0732 135.557C89.8449 135.763 89.5718 135.936 89.254 136.074C88.9406 136.209 88.587 136.276 88.193 136.276C87.7006 136.276 87.2686 136.18 86.8971 135.987C86.53 135.795 86.2435 135.537 86.0376 135.215C85.8362 134.888 85.7354 134.523 85.7354 134.12C85.7354 133.731 85.8115 133.389 85.9637 133.093C86.1159 132.793 86.3353 132.545 86.6218 132.348C86.9083 132.146 87.253 131.994 87.6559 131.891C88.0587 131.788 88.5086 131.737 89.0055 131.737H90.4492ZM95.2838 136.142H94.0416V128.111C94.0416 127.587 94.1356 127.146 94.3236 126.788C94.5161 126.425 94.7914 126.152 95.1495 125.969C95.5076 125.781 95.9329 125.687 96.4253 125.687C96.5685 125.687 96.7118 125.696 96.855 125.714C97.0027 125.732 97.146 125.758 97.2848 125.794L97.2176 126.808C97.1236 126.786 97.0162 126.77 96.8953 126.761C96.7789 126.752 96.6625 126.748 96.5461 126.748C96.282 126.748 96.0537 126.801 95.8612 126.909C95.6732 127.012 95.53 127.164 95.4315 127.365C95.333 127.567 95.2838 127.815 95.2838 128.111V136.142ZM96.8282 128.876V129.83H92.8933V128.876H96.8282ZM101.253 128.876V129.83H97.3251V128.876H101.253ZM98.6546 127.11H99.8968V134.342C99.8968 134.588 99.9348 134.774 100.011 134.899C100.087 135.025 100.186 135.108 100.306 135.148C100.427 135.188 100.557 135.208 100.696 135.208C100.799 135.208 100.906 135.199 101.018 135.181C101.135 135.159 101.222 135.141 101.28 135.128L101.287 136.142C101.188 136.173 101.058 136.202 100.897 136.229C100.741 136.26 100.55 136.276 100.327 136.276C100.022 136.276 99.7424 136.215 99.4872 136.095C99.232 135.974 99.0284 135.772 98.8762 135.49C98.7284 135.204 98.6546 134.819 98.6546 134.335V127.11ZM106.941 134.214C106.941 134.035 106.9 133.87 106.82 133.718C106.744 133.561 106.585 133.42 106.343 133.295C106.106 133.165 105.748 133.053 105.269 132.959C104.866 132.874 104.501 132.773 104.174 132.657C103.852 132.54 103.576 132.399 103.348 132.234C103.124 132.068 102.952 131.873 102.831 131.649C102.71 131.426 102.65 131.164 102.65 130.864C102.65 130.577 102.712 130.307 102.838 130.051C102.968 129.796 103.149 129.57 103.382 129.373C103.619 129.176 103.903 129.022 104.234 128.91C104.566 128.798 104.935 128.742 105.342 128.742C105.924 128.742 106.421 128.845 106.833 129.051C107.245 129.257 107.561 129.532 107.78 129.877C107.999 130.217 108.109 130.595 108.109 131.012H106.867C106.867 130.81 106.806 130.615 106.685 130.427C106.569 130.235 106.397 130.076 106.168 129.951C105.945 129.825 105.669 129.763 105.342 129.763C104.998 129.763 104.718 129.816 104.503 129.924C104.293 130.027 104.138 130.159 104.04 130.32C103.946 130.481 103.899 130.651 103.899 130.83C103.899 130.965 103.921 131.085 103.966 131.193C104.015 131.296 104.1 131.392 104.221 131.482C104.342 131.567 104.512 131.647 104.731 131.723C104.951 131.799 105.231 131.876 105.571 131.952C106.166 132.086 106.656 132.247 107.041 132.435C107.426 132.623 107.713 132.854 107.901 133.127C108.089 133.4 108.183 133.731 108.183 134.12C108.183 134.438 108.116 134.729 107.981 134.993C107.851 135.257 107.661 135.486 107.411 135.678C107.164 135.866 106.869 136.014 106.524 136.121C106.184 136.224 105.801 136.276 105.376 136.276C104.736 136.276 104.194 136.162 103.751 135.933C103.308 135.705 102.972 135.41 102.744 135.047C102.516 134.685 102.401 134.302 102.401 133.899H103.65C103.668 134.239 103.767 134.51 103.946 134.711C104.125 134.908 104.344 135.049 104.604 135.134C104.863 135.215 105.121 135.255 105.376 135.255C105.716 135.255 106 135.21 106.229 135.121C106.462 135.031 106.638 134.908 106.759 134.752C106.88 134.595 106.941 134.416 106.941 134.214Z" fill="#D1D3D6"/>
<path d="M256.766 130.474V131.965C256.766 132.766 256.694 133.442 256.551 133.993C256.407 134.543 256.201 134.987 255.933 135.322C255.664 135.658 255.34 135.902 254.959 136.054C254.583 136.202 254.158 136.276 253.683 136.276C253.307 136.276 252.961 136.229 252.643 136.135C252.325 136.041 252.038 135.891 251.783 135.685C251.533 135.475 251.318 135.202 251.139 134.866C250.96 134.53 250.823 134.123 250.729 133.644C250.635 133.165 250.588 132.605 250.588 131.965V130.474C250.588 129.673 250.66 129.002 250.803 128.46C250.951 127.918 251.159 127.484 251.427 127.157C251.696 126.826 252.018 126.589 252.394 126.446C252.775 126.302 253.2 126.231 253.67 126.231C254.051 126.231 254.4 126.278 254.718 126.372C255.04 126.461 255.326 126.607 255.577 126.808C255.828 127.005 256.04 127.269 256.215 127.6C256.394 127.927 256.531 128.328 256.625 128.802C256.719 129.277 256.766 129.834 256.766 130.474ZM255.517 132.166V130.266C255.517 129.828 255.49 129.443 255.436 129.111C255.387 128.776 255.313 128.489 255.214 128.252C255.116 128.015 254.991 127.822 254.838 127.674C254.691 127.527 254.518 127.419 254.321 127.352C254.129 127.28 253.912 127.245 253.67 127.245C253.375 127.245 253.113 127.301 252.884 127.412C252.656 127.52 252.464 127.692 252.307 127.929C252.155 128.167 252.038 128.478 251.958 128.863C251.877 129.248 251.837 129.716 251.837 130.266V132.166C251.837 132.605 251.862 132.992 251.911 133.328C251.965 133.664 252.043 133.955 252.146 134.201C252.249 134.443 252.374 134.642 252.522 134.799C252.67 134.955 252.84 135.072 253.032 135.148C253.229 135.219 253.446 135.255 253.683 135.255C253.988 135.255 254.254 135.197 254.483 135.081C254.711 134.964 254.901 134.783 255.053 134.537C255.21 134.286 255.326 133.966 255.402 133.577C255.479 133.183 255.517 132.713 255.517 132.166Z" fill="#989CA4"/>
<path d="M39.9093 178.29C39.9093 180.992 39.9093 183.079 39.9093 184.184C39.9093 185.289 41.0144 186.394 42.1194 186.394C43.2245 186.394 52.8016 186.394 53.9066 186.394C55.0117 186.394 56.1167 185.289 56.1167 184.184C56.1167 183.079 56.1167 178.29 56.1167 178.29M39.9093 178.29H43.9612C43.9612 178.29 45.0662 180.869 48.013 180.869C50.9598 180.869 52.0649 178.29 52.0649 178.29H56.1167M39.9093 178.29L42.8561 170.187H53.1699L56.1167 178.29M39.9093 178.29V180.869M56.1167 178.29V180.869" stroke="#D1D3D6" stroke-width="1.4734" stroke-linecap="round" stroke-linejoin="round"/>
<path d="M74.1123 173.514V183.291H72.8163V173.514H74.1123ZM77.5233 177.576V183.291H76.2811V176.025H77.4562L77.5233 177.576ZM77.2279 179.383L76.7109 179.362C76.7153 178.866 76.7892 178.407 76.9324 177.986C77.0757 177.561 77.2771 177.191 77.5368 176.878C77.7964 176.565 78.1053 176.323 78.4634 176.153C78.826 175.978 79.2266 175.891 79.6653 175.891C80.0235 175.891 80.3458 175.94 80.6323 176.039C80.9187 176.133 81.1627 176.285 81.3642 176.495C81.5701 176.706 81.7268 176.979 81.8342 177.314C81.9416 177.646 81.9953 178.051 81.9953 178.53V183.291H80.7464V178.516C80.7464 178.136 80.6904 177.831 80.5785 177.603C80.4666 177.37 80.3032 177.203 80.0884 177.1C79.8735 176.992 79.6094 176.938 79.296 176.938C78.9871 176.938 78.7051 177.003 78.45 177.133C78.1993 177.263 77.9822 177.442 77.7986 177.67C77.6196 177.899 77.4786 178.16 77.3756 178.456C77.2771 178.747 77.2279 179.056 77.2279 179.383ZM83.8755 172.977H85.1244V181.88L85.017 183.291H83.8755V172.977ZM90.0329 179.597V179.738C90.0329 180.267 89.9702 180.757 89.8449 181.209C89.7195 181.657 89.536 182.046 89.2942 182.377C89.0525 182.709 88.7571 182.966 88.4079 183.15C88.0587 183.333 87.6581 183.425 87.206 183.425C86.7449 183.425 86.3398 183.346 85.9906 183.19C85.6459 183.029 85.3549 182.798 85.1177 182.498C84.8804 182.198 84.6902 181.836 84.5469 181.41C84.4082 180.985 84.3119 180.506 84.2582 179.973V179.356C84.3119 178.819 84.4082 178.337 84.5469 177.912C84.6902 177.487 84.8804 177.124 85.1177 176.824C85.3549 176.52 85.6459 176.289 85.9906 176.133C86.3353 175.971 86.7359 175.891 87.1925 175.891C87.6491 175.891 88.0543 175.98 88.4079 176.159C88.7615 176.334 89.057 176.585 89.2942 176.912C89.536 177.238 89.7195 177.63 89.8449 178.087C89.9702 178.539 90.0329 179.042 90.0329 179.597ZM88.7839 179.738V179.597C88.7839 179.235 88.7504 178.895 88.6832 178.577C88.6161 178.254 88.5086 177.972 88.3609 177.731C88.2132 177.485 88.0184 177.292 87.7767 177.153C87.535 177.01 87.2373 176.938 86.8837 176.938C86.5703 176.938 86.2972 176.992 86.0645 177.1C85.8362 177.207 85.6414 177.352 85.4803 177.536C85.3191 177.715 85.1871 177.921 85.0841 178.154C84.9856 178.382 84.9118 178.619 84.8625 178.866V180.484C84.9342 180.797 85.0505 181.099 85.2117 181.39C85.3773 181.677 85.5967 181.912 85.8697 182.095C86.1473 182.279 86.4897 182.371 86.8971 182.371C87.2328 182.371 87.5193 182.303 87.7566 182.169C87.9983 182.03 88.193 181.84 88.3408 181.598C88.493 181.357 88.6049 181.077 88.6765 180.759C88.7481 180.441 88.7839 180.101 88.7839 179.738ZM91.2751 179.738V179.584C91.2751 179.06 91.3512 178.575 91.5034 178.127C91.6556 177.675 91.8749 177.283 92.1614 176.952C92.4479 176.616 92.7949 176.356 93.2022 176.173C93.6096 175.985 94.0662 175.891 94.572 175.891C95.0823 175.891 95.5412 175.985 95.9485 176.173C96.3604 176.356 96.7095 176.616 96.996 176.952C97.287 177.283 97.5086 177.675 97.6608 178.127C97.813 178.575 97.8891 179.06 97.8891 179.584V179.738C97.8891 180.262 97.813 180.748 97.6608 181.196C97.5086 181.643 97.287 182.035 96.996 182.371C96.7095 182.702 96.3626 182.962 95.9552 183.15C95.5524 183.333 95.0958 183.425 94.5854 183.425C94.0751 183.425 93.6163 183.333 93.2089 183.15C92.8016 182.962 92.4524 182.702 92.1614 182.371C91.8749 182.035 91.6556 181.643 91.5034 181.196C91.3512 180.748 91.2751 180.262 91.2751 179.738ZM92.5173 179.584V179.738C92.5173 180.101 92.5598 180.443 92.6449 180.766C92.7299 181.084 92.8575 181.366 93.0276 181.612C93.2022 181.858 93.4193 182.053 93.679 182.196C93.9386 182.335 94.2408 182.404 94.5854 182.404C94.9257 182.404 95.2233 182.335 95.4785 182.196C95.7381 182.053 95.953 181.858 96.1231 181.612C96.2932 181.366 96.4208 181.084 96.5059 180.766C96.5954 180.443 96.6401 180.101 96.6401 179.738V179.584C96.6401 179.226 96.5954 178.888 96.5059 178.57C96.4208 178.248 96.291 177.964 96.1164 177.717C95.9463 177.467 95.7314 177.27 95.4718 177.126C95.2166 176.983 94.9167 176.912 94.572 176.912C94.2318 176.912 93.9319 176.983 93.6722 177.126C93.4171 177.27 93.2022 177.467 93.0276 177.717C92.8575 177.964 92.7299 178.248 92.6449 178.57C92.5598 178.888 92.5173 179.226 92.5173 179.584ZM100.139 176.025L101.73 178.671L103.341 176.025H104.799L102.422 179.611L104.872 183.291H103.435L101.757 180.564L100.078 183.291H98.6344L101.079 179.611L98.7083 176.025H100.139Z" fill="#D1D3D6"/>
<path d="M256.766 177.623V179.114C256.766 179.915 256.694 180.591 256.551 181.142C256.407 181.692 256.201 182.136 255.933 182.471C255.664 182.807 255.34 183.051 254.959 183.203C254.583 183.351 254.158 183.425 253.683 183.425C253.307 183.425 252.961 183.378 252.643 183.284C252.325 183.19 252.038 183.04 251.783 182.834C251.533 182.624 251.318 182.35 251.139 182.015C250.96 181.679 250.823 181.272 250.729 180.793C250.635 180.314 250.588 179.754 250.588 179.114V177.623C250.588 176.822 250.66 176.151 250.803 175.609C250.951 175.067 251.159 174.633 251.427 174.306C251.696 173.975 252.018 173.738 252.394 173.594C252.775 173.451 253.2 173.38 253.67 173.38C254.051 173.38 254.4 173.427 254.718 173.521C255.04 173.61 255.326 173.756 255.577 173.957C255.828 174.154 256.04 174.418 256.215 174.749C256.394 175.076 256.531 175.477 256.625 175.951C256.719 176.426 256.766 176.983 256.766 177.623ZM255.517 179.315V177.415C255.517 176.976 255.49 176.591 255.436 176.26C255.387 175.924 255.313 175.638 255.214 175.401C255.116 175.163 254.991 174.971 254.838 174.823C254.691 174.676 254.518 174.568 254.321 174.501C254.129 174.429 253.912 174.394 253.67 174.394C253.375 174.394 253.113 174.449 252.884 174.561C252.656 174.669 252.464 174.841 252.307 175.078C252.155 175.316 252.038 175.627 251.958 176.012C251.877 176.397 251.837 176.865 251.837 177.415V179.315C251.837 179.754 251.862 180.141 251.911 180.477C251.965 180.813 252.043 181.104 252.146 181.35C252.249 181.592 252.374 181.791 252.522 181.948C252.67 182.104 252.84 182.221 253.032 182.297C253.229 182.368 253.446 182.404 253.683 182.404C253.988 182.404 254.254 182.346 254.483 182.23C254.711 182.113 254.901 181.932 255.053 181.686C255.21 181.435 255.326 181.115 255.402 180.726C255.479 180.332 255.517 179.862 255.517 179.315Z" fill="#989CA4"/>
<path d="M39.9093 225.44C39.9093 228.141 39.9093 230.228 39.9093 231.333C39.9093 232.438 41.0144 233.543 42.1194 233.543C43.2245 233.543 52.8016 233.543 53.9066 233.543C55.0117 233.543 56.1167 232.438 56.1167 231.333C56.1167 230.228 56.1167 225.44 56.1167 225.44M39.9093 225.44H43.9612C43.9612 225.44 44.6979 228.018 48.013 228.018C51.3282 228.018 52.0649 225.44 52.0649 225.44H56.1167M39.9093 225.44V228.018M39.9093 225.44L40.646 223.23M56.1167 225.44L55.38 223.23M46.1713 220.283H49.8548M46.1713 223.23H49.8548M43.2245 223.23V217.336H52.8016V223.23" stroke="#D1D3D6" stroke-width="1.4734" stroke-linecap="round" stroke-linejoin="round"/>
<path d="M80.2428 220.663V230.439H78.9401L74.0183 222.899V230.439H72.7223V220.663H74.0183L78.9603 228.224V220.663H80.2428ZM85.3661 230.574C84.8603 230.574 84.4015 230.489 83.9896 230.319C83.5823 230.144 83.2309 229.9 82.9354 229.587C82.6444 229.273 82.4206 228.902 82.2639 228.472C82.1073 228.042 82.0289 227.572 82.0289 227.062V226.78C82.0289 226.189 82.1162 225.663 82.2908 225.202C82.4654 224.736 82.7026 224.342 83.0026 224.02C83.3025 223.698 83.6427 223.454 84.0232 223.288C84.4037 223.123 84.7976 223.04 85.205 223.04C85.7243 223.04 86.1719 223.129 86.5479 223.308C86.9284 223.487 87.2395 223.738 87.4813 224.06C87.723 224.378 87.9021 224.754 88.0184 225.189C88.1348 225.618 88.193 226.088 88.193 226.599V227.156H82.7675V226.142H86.9508V226.048C86.9329 225.726 86.8658 225.412 86.7494 225.108C86.6375 224.804 86.4584 224.553 86.2122 224.356C85.966 224.159 85.6302 224.06 85.205 224.06C84.923 224.06 84.6633 224.121 84.4261 224.242C84.1888 224.358 83.9851 224.533 83.815 224.766C83.6449 224.998 83.5129 225.283 83.4189 225.618C83.3249 225.954 83.2779 226.341 83.2779 226.78V227.062C83.2779 227.407 83.3249 227.731 83.4189 228.036C83.5173 228.336 83.6584 228.6 83.8419 228.828C84.0299 229.056 84.256 229.235 84.5201 229.365C84.7887 229.495 85.0931 229.56 85.4333 229.56C85.872 229.56 86.2435 229.47 86.5479 229.291C86.8523 229.112 87.1187 228.873 87.347 228.573L88.099 229.17C87.9423 229.408 87.7431 229.634 87.5014 229.849C87.2597 230.063 86.962 230.238 86.6084 230.372C86.2592 230.507 85.8451 230.574 85.3661 230.574ZM91.4832 229.15L93.3499 223.174H94.1691L94.008 224.363L92.1077 230.439H91.3087L91.4832 229.15ZM90.2276 223.174L91.819 229.217L91.9331 230.439H91.0938L88.9854 223.174H90.2276ZM95.9552 229.17L97.4728 223.174H98.7083L96.5999 230.439H95.7672L95.9552 229.17ZM94.3504 223.174L96.1768 229.05L96.385 230.439H95.5927L93.6387 224.349L93.4775 223.174H94.3504ZM104.214 228.512C104.214 228.333 104.174 228.168 104.093 228.015C104.017 227.859 103.858 227.718 103.617 227.592C103.379 227.463 103.021 227.351 102.542 227.257C102.14 227.172 101.775 227.071 101.448 226.955C101.126 226.838 100.85 226.697 100.622 226.531C100.398 226.366 100.226 226.171 100.105 225.947C99.9841 225.723 99.9236 225.462 99.9236 225.162C99.9236 224.875 99.9863 224.604 100.112 224.349C100.241 224.094 100.423 223.868 100.656 223.671C100.893 223.474 101.177 223.32 101.508 223.208C101.84 223.096 102.209 223.04 102.616 223.04C103.198 223.04 103.695 223.143 104.107 223.349C104.519 223.555 104.834 223.83 105.054 224.175C105.273 224.515 105.383 224.893 105.383 225.309H104.14C104.14 225.108 104.08 224.913 103.959 224.725C103.843 224.533 103.67 224.374 103.442 224.248C103.218 224.123 102.943 224.06 102.616 224.06C102.272 224.06 101.992 224.114 101.777 224.222C101.567 224.325 101.412 224.457 101.314 224.618C101.22 224.779 101.173 224.949 101.173 225.128C101.173 225.262 101.195 225.383 101.24 225.491C101.289 225.594 101.374 225.69 101.495 225.779C101.616 225.864 101.786 225.945 102.005 226.021C102.225 226.097 102.504 226.173 102.845 226.249C103.44 226.384 103.93 226.545 104.315 226.733C104.7 226.921 104.987 227.151 105.175 227.425C105.363 227.698 105.457 228.029 105.457 228.418C105.457 228.736 105.389 229.027 105.255 229.291C105.125 229.555 104.935 229.784 104.684 229.976C104.438 230.164 104.143 230.312 103.798 230.419C103.458 230.522 103.075 230.574 102.65 230.574C102.01 230.574 101.468 230.46 101.025 230.231C100.582 230.003 100.246 229.708 100.018 229.345C99.7894 228.982 99.6752 228.6 99.6752 228.197H100.924C100.942 228.537 101.041 228.808 101.22 229.009C101.399 229.206 101.618 229.347 101.878 229.432C102.137 229.513 102.395 229.553 102.65 229.553C102.99 229.553 103.274 229.508 103.503 229.419C103.735 229.329 103.912 229.206 104.033 229.05C104.154 228.893 104.214 228.714 104.214 228.512ZM108.438 220.126V230.439H107.189V220.126H108.438ZM113.447 230.574C112.941 230.574 112.482 230.489 112.071 230.319C111.663 230.144 111.312 229.9 111.016 229.587C110.725 229.273 110.502 228.902 110.345 228.472C110.188 228.042 110.11 227.572 110.11 227.062V226.78C110.11 226.189 110.197 225.663 110.372 225.202C110.546 224.736 110.784 224.342 111.084 224.02C111.383 223.698 111.724 223.454 112.104 223.288C112.485 223.123 112.879 223.04 113.286 223.04C113.805 223.04 114.253 223.129 114.629 223.308C115.009 223.487 115.321 223.738 115.562 224.06C115.804 224.378 115.983 224.754 116.099 225.189C116.216 225.618 116.274 226.088 116.274 226.599V227.156H110.849V226.142H115.032V226.048C115.014 225.726 114.947 225.412 114.83 225.108C114.718 224.804 114.539 224.553 114.293 224.356C114.047 224.159 113.711 224.06 113.286 224.06C113.004 224.06 112.744 224.121 112.507 224.242C112.27 224.358 112.066 224.533 111.896 224.766C111.726 224.998 111.594 225.283 111.5 225.618C111.406 225.954 111.359 226.341 111.359 226.78V227.062C111.359 227.407 111.406 227.731 111.5 228.036C111.598 228.336 111.739 228.6 111.923 228.828C112.111 229.056 112.337 229.235 112.601 229.365C112.87 229.495 113.174 229.56 113.514 229.56C113.953 229.56 114.324 229.47 114.629 229.291C114.933 229.112 115.2 228.873 115.428 228.573L116.18 229.17C116.023 229.408 115.824 229.634 115.582 229.849C115.341 230.063 115.043 230.238 114.689 230.372C114.34 230.507 113.926 230.574 113.447 230.574ZM120.766 223.174V224.128H116.838V223.174H120.766ZM118.168 221.408H119.41V228.64C119.41 228.886 119.448 229.072 119.524 229.197C119.6 229.323 119.699 229.405 119.819 229.446C119.94 229.486 120.07 229.506 120.209 229.506C120.312 229.506 120.419 229.497 120.531 229.479C120.648 229.457 120.735 229.439 120.793 229.426L120.8 230.439C120.701 230.471 120.571 230.5 120.41 230.527C120.254 230.558 120.063 230.574 119.84 230.574C119.535 230.574 119.255 230.513 119 230.392C118.745 230.272 118.541 230.07 118.389 229.788C118.241 229.502 118.168 229.117 118.168 228.633V221.408ZM125.265 223.174V224.128H121.337V223.174H125.265ZM122.666 221.408H123.909V228.64C123.909 228.886 123.947 229.072 124.023 229.197C124.099 229.323 124.197 229.405 124.318 229.446C124.439 229.486 124.569 229.506 124.708 229.506C124.811 229.506 124.918 229.497 125.03 229.479C125.146 229.457 125.234 229.439 125.292 229.426L125.299 230.439C125.2 230.471 125.07 230.5 124.909 230.527C124.752 230.558 124.562 230.574 124.338 230.574C124.034 230.574 123.754 230.513 123.499 230.392C123.244 230.272 123.04 230.07 122.888 229.788C122.74 229.502 122.666 229.117 122.666 228.633V221.408ZM129.737 230.574C129.231 230.574 128.772 230.489 128.36 230.319C127.953 230.144 127.602 229.9 127.306 229.587C127.015 229.273 126.791 228.902 126.635 228.472C126.478 228.042 126.4 227.572 126.4 227.062V226.78C126.4 226.189 126.487 225.663 126.662 225.202C126.836 224.736 127.074 224.342 127.373 224.02C127.673 223.698 128.014 223.454 128.394 223.288C128.775 223.123 129.168 223.04 129.576 223.04C130.095 223.04 130.543 223.129 130.919 223.308C131.299 223.487 131.61 223.738 131.852 224.06C132.094 224.378 132.273 224.754 132.389 225.189C132.506 225.618 132.564 226.088 132.564 226.599V227.156H127.138V226.142H131.322V226.048C131.304 225.726 131.237 225.412 131.12 225.108C131.008 224.804 130.829 224.553 130.583 224.356C130.337 224.159 130.001 224.06 129.576 224.06C129.294 224.06 129.034 224.121 128.797 224.242C128.56 224.358 128.356 224.533 128.186 224.766C128.016 224.998 127.884 225.283 127.79 225.618C127.696 225.954 127.649 226.341 127.649 226.78V227.062C127.649 227.407 127.696 227.731 127.79 228.036C127.888 228.336 128.029 228.6 128.213 228.828C128.401 229.056 128.627 229.235 128.891 229.365C129.16 229.495 129.464 229.56 129.804 229.56C130.243 229.56 130.614 229.47 130.919 229.291C131.223 229.112 131.49 228.873 131.718 228.573L132.47 229.17C132.313 229.408 132.114 229.634 131.872 229.849C131.631 230.063 131.333 230.238 130.979 230.372C130.63 230.507 130.216 230.574 129.737 230.574ZM135.257 224.316V230.439H134.014V223.174H135.223L135.257 224.316ZM137.526 223.134L137.519 224.289C137.416 224.266 137.318 224.253 137.224 224.248C137.134 224.24 137.031 224.235 136.915 224.235C136.629 224.235 136.376 224.28 136.156 224.369C135.937 224.459 135.751 224.584 135.599 224.745C135.447 224.907 135.326 225.099 135.236 225.323C135.151 225.542 135.095 225.784 135.068 226.048L134.719 226.249C134.719 225.811 134.762 225.399 134.847 225.014C134.936 224.629 135.073 224.289 135.257 223.993C135.44 223.693 135.673 223.461 135.955 223.295C136.241 223.125 136.582 223.04 136.975 223.04C137.065 223.04 137.168 223.051 137.284 223.073C137.401 223.091 137.481 223.111 137.526 223.134ZM142.905 228.512C142.905 228.333 142.864 228.168 142.784 228.015C142.708 227.859 142.549 227.718 142.307 227.592C142.07 227.463 141.712 227.351 141.233 227.257C140.83 227.172 140.465 227.071 140.138 226.955C139.816 226.838 139.541 226.697 139.312 226.531C139.088 226.366 138.916 226.171 138.795 225.947C138.674 225.723 138.614 225.462 138.614 225.162C138.614 224.875 138.677 224.604 138.802 224.349C138.932 224.094 139.113 223.868 139.346 223.671C139.583 223.474 139.867 223.32 140.199 223.208C140.53 223.096 140.899 223.04 141.306 223.04C141.888 223.04 142.385 223.143 142.797 223.349C143.209 223.555 143.525 223.83 143.744 224.175C143.963 224.515 144.073 224.893 144.073 225.309H142.831C142.831 225.108 142.77 224.913 142.649 224.725C142.533 224.533 142.361 224.374 142.132 224.248C141.909 224.123 141.633 224.06 141.306 224.06C140.962 224.06 140.682 224.114 140.467 224.222C140.257 224.325 140.102 224.457 140.004 224.618C139.91 224.779 139.863 224.949 139.863 225.128C139.863 225.262 139.885 225.383 139.93 225.491C139.979 225.594 140.064 225.69 140.185 225.779C140.306 225.864 140.476 225.945 140.695 226.021C140.915 226.097 141.195 226.173 141.535 226.249C142.13 226.384 142.62 226.545 143.005 226.733C143.39 226.921 143.677 227.151 143.865 227.425C144.053 227.698 144.147 228.029 144.147 228.418C144.147 228.736 144.08 229.027 143.945 229.291C143.816 229.555 143.625 229.784 143.375 229.976C143.128 230.164 142.833 230.312 142.488 230.419C142.148 230.522 141.765 230.574 141.34 230.574C140.7 230.574 140.158 230.46 139.715 230.231C139.272 230.003 138.936 229.708 138.708 229.345C138.48 228.982 138.365 228.6 138.365 228.197H139.614C139.632 228.537 139.731 228.808 139.91 229.009C140.089 229.206 140.308 229.347 140.568 229.432C140.827 229.513 141.085 229.553 141.34 229.553C141.68 229.553 141.965 229.508 142.193 229.419C142.426 229.329 142.602 229.206 142.723 229.05C142.844 228.893 142.905 228.714 142.905 228.512Z" fill="#D1D3D6"/>
<path d="M256.766 224.772V226.263C256.766 227.064 256.694 227.74 256.551 228.291C256.407 228.841 256.201 229.285 255.933 229.62C255.664 229.956 255.34 230.2 254.959 230.352C254.583 230.5 254.158 230.574 253.683 230.574C253.307 230.574 252.961 230.527 252.643 230.433C252.325 230.339 252.038 230.189 251.783 229.983C251.533 229.772 251.318 229.499 251.139 229.164C250.96 228.828 250.823 228.421 250.729 227.942C250.635 227.463 250.588 226.903 250.588 226.263V224.772C250.588 223.971 250.66 223.299 250.803 222.758C250.951 222.216 251.159 221.782 251.427 221.455C251.696 221.124 252.018 220.887 252.394 220.743C252.775 220.6 253.2 220.529 253.67 220.529C254.051 220.529 254.4 220.576 254.718 220.67C255.04 220.759 255.326 220.905 255.577 221.106C255.828 221.303 256.04 221.567 256.215 221.898C256.394 222.225 256.531 222.626 256.625 223.1C256.719 223.575 256.766 224.132 256.766 224.772ZM255.517 226.464V224.564C255.517 224.125 255.49 223.74 255.436 223.409C255.387 223.073 255.313 222.787 255.214 222.55C255.116 222.312 254.991 222.12 254.838 221.972C254.691 221.824 254.518 221.717 254.321 221.65C254.129 221.578 253.912 221.542 253.67 221.542C253.375 221.542 253.113 221.598 252.884 221.71C252.656 221.818 252.464 221.99 252.307 222.227C252.155 222.465 252.038 222.776 251.958 223.161C251.877 223.546 251.837 224.013 251.837 224.564V226.464C251.837 226.903 251.862 227.29 251.911 227.626C251.965 227.962 252.043 228.253 252.146 228.499C252.249 228.741 252.374 228.94 252.522 229.097C252.67 229.253 252.84 229.37 253.032 229.446C253.229 229.517 253.446 229.553 253.683 229.553C253.988 229.553 254.254 229.495 254.483 229.379C254.711 229.262 254.901 229.081 255.053 228.835C255.21 228.584 255.326 228.264 255.402 227.874C255.479 227.48 255.517 227.01 255.517 226.464Z" fill="#989CA4"/>
</svg>
