<svg width="96" height="24" viewBox="0 0 96 24" fill="none" xmlns="http://www.w3.org/2000/svg">
<path d="M0.249374 22.906V6.73116H4.63635V22.906H0.249374ZM10.7982 22.906V13.3619C10.7982 12.4242 10.4968 11.6986 9.89403 11.1851C9.31356 10.6493 8.58798 10.3814 7.71728 10.3814C7.13682 10.3814 6.61217 10.5042 6.14333 10.7498C5.67449 10.973 5.30612 11.3079 5.03821 11.7544C4.7703 12.2009 4.63635 12.7367 4.63635 13.3619L2.92844 12.5247C2.92844 11.2744 3.19635 10.1916 3.73217 9.27628C4.2903 8.36093 5.03821 7.65767 5.97589 7.16651C6.91356 6.65302 7.97403 6.39628 9.15728 6.39628C10.2736 6.39628 11.2894 6.65302 12.2047 7.16651C13.1201 7.65767 13.8457 8.36093 14.3815 9.27628C14.9173 10.1693 15.1852 11.2521 15.1852 12.5247V22.906H10.7982ZM21.347 22.906V13.3619C21.347 12.4242 21.0457 11.6986 20.4429 11.1851C19.8624 10.6493 19.1368 10.3814 18.2661 10.3814C17.708 10.3814 17.1833 10.5042 16.6922 10.7498C16.2233 10.973 15.855 11.3079 15.5871 11.7544C15.3191 12.2009 15.1852 12.7367 15.1852 13.3619L12.6736 12.7591C12.7629 11.4642 13.1089 10.3479 13.7117 9.41023C14.3145 8.45023 15.107 7.71349 16.0894 7.2C17.0717 6.66419 18.1657 6.39628 19.3712 6.39628C20.5768 6.39628 21.6596 6.65302 22.6196 7.16651C23.5796 7.65767 24.3387 8.37209 24.8968 9.30977C25.455 10.2474 25.734 11.3637 25.734 12.6586V22.906H21.347Z" fill="white"/>
<path d="M36.0547 23.2409C34.5812 23.2409 33.2529 22.8726 32.0696 22.1358C30.8864 21.3991 29.9598 20.3944 29.2901 19.1219C28.6203 17.8493 28.2854 16.4205 28.2854 14.8353C28.2854 13.2279 28.6203 11.7879 29.2901 10.5153C29.9598 9.24279 30.8864 8.23814 32.0696 7.5014C33.2529 6.76465 34.5812 6.39628 36.0547 6.39628C37.2157 6.39628 38.2538 6.6307 39.1691 7.09953C40.0845 7.56837 40.8101 8.22698 41.3459 9.07535C41.904 9.9014 42.2054 10.8391 42.2501 11.8884V17.7153C42.2054 18.787 41.904 19.7358 41.3459 20.5619C40.8101 21.3879 40.0845 22.0465 39.1691 22.5377C38.2538 23.0065 37.2157 23.2409 36.0547 23.2409ZM36.8584 19.1888C38.0864 19.1888 39.0798 18.787 39.8389 17.9833C40.598 17.1572 40.9775 16.0967 40.9775 14.8019C40.9775 13.9535 40.7989 13.2056 40.4417 12.5581C40.1068 11.8884 39.6268 11.3749 39.0017 11.0177C38.3989 10.6381 37.6845 10.4484 36.8584 10.4484C36.0547 10.4484 35.3403 10.6381 34.7152 11.0177C34.1124 11.3749 33.6324 11.8884 33.2752 12.5581C32.9403 13.2056 32.7729 13.9535 32.7729 14.8019C32.7729 15.6726 32.9403 16.4428 33.2752 17.1126C33.6324 17.76 34.1124 18.2735 34.7152 18.653C35.3403 19.0102 36.0547 19.1888 36.8584 19.1888ZM40.7431 22.906V18.5526L41.4464 14.6009L40.7431 10.7163V6.73116H45.0966V22.906H40.7431Z" fill="white"/>
<path d="M51.3552 22.906V0H55.7422V22.906H51.3552ZM47.5711 10.5823V6.73116H69.5394V10.5823H47.5711ZM61.3683 22.906V0H65.7552V22.906H61.3683Z" fill="white"/>
<path d="M79.3769 23.2409C77.6802 23.2409 76.1732 22.8837 74.856 22.1693C73.5388 21.4326 72.4895 20.4279 71.7081 19.1553C70.949 17.8828 70.5695 16.4316 70.5695 14.8019C70.5695 13.1944 70.9378 11.7656 71.6746 10.5153C72.4336 9.24279 73.4606 8.23814 74.7555 7.5014C76.0504 6.74233 77.4904 6.36279 79.0755 6.36279C80.6383 6.36279 82.0113 6.72 83.1946 7.43442C84.4002 8.12651 85.3378 9.08651 86.0076 10.3144C86.6997 11.52 87.0457 12.893 87.0457 14.4335C87.0457 14.7237 87.0234 15.0251 86.9788 15.3377C86.9564 15.6279 86.9006 15.9628 86.8113 16.3423L73.215 16.3758V13.094L84.7685 13.0605L82.9936 14.4335C82.949 13.4735 82.7704 12.6698 82.4578 12.0223C82.1676 11.3749 81.7323 10.8837 81.1518 10.5488C80.5936 10.1916 79.9016 10.013 79.0755 10.013C78.2048 10.013 77.4457 10.214 76.7983 10.6158C76.1509 10.9953 75.6485 11.5423 75.2913 12.2567C74.9564 12.9488 74.789 13.7749 74.789 14.7349C74.789 15.7172 74.9676 16.5767 75.3248 17.3135C75.7043 18.0279 76.2402 18.586 76.9323 18.9879C77.6243 19.3674 78.4281 19.5572 79.3434 19.5572C80.1695 19.5572 80.9174 19.4233 81.5871 19.1553C82.2569 18.8651 82.8374 18.4409 83.3285 17.8828L85.9071 20.4614C85.1257 21.3767 84.1657 22.0688 83.0271 22.5377C81.9109 23.0065 80.6941 23.2409 79.3769 23.2409Z" fill="white"/>
<path d="M92.7728 23.2409C91.9691 23.2409 91.3105 22.973 90.797 22.4372C90.2835 21.9014 90.0267 21.2428 90.0267 20.4614C90.0267 19.68 90.2835 19.0214 90.797 18.4856C91.3105 17.9498 91.9691 17.6819 92.7728 17.6819C93.5542 17.6819 94.2016 17.9498 94.7151 18.4856C95.2286 19.0214 95.4853 19.68 95.4853 20.4614C95.4853 21.2428 95.2286 21.9014 94.7151 22.4372C94.2016 22.973 93.5542 23.2409 92.7728 23.2409Z" fill="white"/>
</svg>
